<svg width="16" height="16" viewBox="0 0 16 16" fill="none" xmlns="http://www.w3.org/2000/svg">
<g clip-path="url(#clip0_335_3583)">
<path fill-rule="evenodd" clip-rule="evenodd" d="M4.49999 5.46667C4.61602 5.46667 4.7273 5.42101 4.80935 5.33975C4.89139 5.25848 4.93749 5.14826 4.93749 5.03333V2.43333C4.93749 2.31841 4.89139 2.20819 4.80935 2.12692C4.7273 2.04565 4.61602 2 4.49999 2C4.38396 2 4.27268 2.04565 4.19064 2.12692C4.10859 2.20819 4.0625 2.31841 4.0625 2.43333V5.03333C4.0625 5.14826 4.10859 5.25848 4.19064 5.33975C4.27268 5.42101 4.38396 5.46667 4.49999 5.46667ZM14.2343 3.73332H12.4843V5.03332C12.4843 5.15851 12.4594 5.28248 12.411 5.39814C12.3627 5.51381 12.2918 5.6189 12.2024 5.70743C12.113 5.79595 12.0069 5.86617 11.8902 5.91408C11.7734 5.96199 11.6482 5.98665 11.5218 5.98665C11.3954 5.98665 11.2703 5.96199 11.1535 5.91408C11.0367 5.86617 10.9306 5.79595 10.8412 5.70743C10.7519 5.6189 10.681 5.51381 10.6326 5.39814C10.5842 5.28248 10.5593 5.15851 10.5593 5.03332V3.73332H5.46254V5.03332C5.46254 5.28616 5.36114 5.52864 5.18064 5.70743C5.00014 5.88621 4.75533 5.98665 4.50006 5.98665C4.24479 5.98665 3.99998 5.88621 3.81948 5.70743C3.63898 5.52864 3.53757 5.28616 3.53757 5.03332V3.73332H1.7876C1.68349 3.73215 1.58019 3.75166 1.48383 3.79072C1.38746 3.82978 1.29998 3.88757 1.22656 3.9607C1.15315 4.03383 1.09528 4.12079 1.05638 4.21646C1.01748 4.31212 0.998351 4.41454 1.00011 4.51765V14.2157C0.998374 14.3169 1.0168 14.4176 1.05434 14.5118C1.09188 14.6061 1.14779 14.6921 1.21889 14.7649C1.28998 14.8377 1.37487 14.896 1.4687 14.9363C1.56252 14.9767 1.66346 14.9983 1.76573 15H14.2343C14.3366 14.9983 14.4375 14.9767 14.5313 14.9363C14.6251 14.896 14.71 14.8377 14.7811 14.7649C14.8522 14.6921 14.9081 14.6061 14.9457 14.5118C14.9832 14.4176 15.0016 14.3169 14.9999 14.2157V4.51765C15.0016 4.41636 14.9832 4.31571 14.9457 4.22147C14.9081 4.12723 14.8522 4.04123 14.7811 3.9684C14.71 3.89556 14.6251 3.83731 14.5313 3.79698C14.4375 3.75664 14.3366 3.73501 14.2343 3.73332ZM4.50006 12.4H3.62507V11.5333H4.50006V12.4ZM4.50006 10.2333H3.62507V9.36665H4.50006V10.2333ZM4.50006 8.06665H3.62507V7.19999H4.50006V8.06665ZM7.12502 12.4H6.25003V11.5333H7.12502V12.4ZM7.12502 10.2333H6.25003V9.36665H7.12502V10.2333ZM7.12502 8.06665H6.25003V7.19999H7.12502V8.06665ZM9.74998 12.4H8.87499V11.5333H9.74998V12.4ZM9.74998 10.2333H8.87499V9.36665H9.74998V10.2333ZM9.74998 8.06665H8.87499V7.19999H9.74998V8.06665ZM12.3749 12.4H11.5V11.5333H12.3749V12.4ZM12.3749 10.2333H11.5V9.36665H12.3749V10.2333ZM12.3749 8.06665H11.5V7.19999H12.3749V8.06665ZM11.8093 5.33975C11.7273 5.42101 11.616 5.46667 11.5 5.46667C11.384 5.46667 11.2727 5.42101 11.1906 5.33975C11.1086 5.25848 11.0625 5.14826 11.0625 5.03333V2.43333C11.0625 2.31841 11.1086 2.20819 11.1906 2.12692C11.2727 2.04565 11.384 2 11.5 2C11.616 2 11.7273 2.04565 11.8093 2.12692C11.8914 2.20819 11.9375 2.31841 11.9375 2.43333V5.03333C11.9375 5.14826 11.8914 5.25848 11.8093 5.33975Z" fill="#606EEA"/>
</g>
<defs>
<clipPath id="clip0_335_3583">
<rect width="16" height="16" fill="white"/>
</clipPath>
</defs>
</svg>
