<svg width="16" height="16" viewBox="0 0 16 16" fill="none" xmlns="http://www.w3.org/2000/svg">
<g clip-path="url(#clip0_335_3578)">
<path d="M14.125 2H1.875C1.64294 2 1.42038 2.09031 1.25628 2.25105C1.09219 2.4118 1 2.62981 1 2.85714V13.1429C1 13.3702 1.09219 13.5882 1.25628 13.7489C1.42038 13.9097 1.64294 14 1.875 14H14.125C14.3571 14 14.5796 13.9097 14.7437 13.7489C14.9078 13.5882 15 13.3702 15 13.1429V2.85714C15 2.62981 14.9078 2.4118 14.7437 2.25105C14.5796 2.09031 14.3571 2 14.125 2ZM4.0275 3.71429C4.28709 3.71429 4.54085 3.78969 4.75669 3.93097C4.97253 4.07224 5.14075 4.27304 5.24009 4.50798C5.33943 4.74291 5.36542 5.00143 5.31478 5.25083C5.26414 5.50023 5.13913 5.72933 4.95558 5.90914C4.77202 6.08895 4.53816 6.2114 4.28356 6.26101C4.02896 6.31062 3.76506 6.28516 3.52523 6.18785C3.2854 6.09053 3.08042 5.92574 2.9362 5.7143C2.79198 5.50287 2.715 5.25429 2.715 5C2.715 4.65901 2.85328 4.33198 3.09942 4.09086C3.34556 3.84974 3.6794 3.71429 4.0275 3.71429ZM2.75 11.8571V10.1L5.375 7.49429C5.45697 7.41446 5.56786 7.36966 5.68344 7.36966C5.79902 7.36966 5.9099 7.41446 5.99187 7.49429L7.125 8.57857L3.765 11.8571H2.75ZM13.25 11.8571H5.00312L7.72875 9.18714L10.0913 6.87286C10.1732 6.79304 10.2841 6.74823 10.3997 6.74823C10.5153 6.74823 10.6262 6.79304 10.7081 6.87286L13.25 9.36286V11.8571Z" fill="#606EEA"/>
</g>
<defs>
<clipPath id="clip0_335_3578">
<rect width="16" height="16" fill="white"/>
</clipPath>
</defs>
</svg>
