<svg width="16" height="16" viewBox="0 0 16 16" fill="none" xmlns="http://www.w3.org/2000/svg">
<g clip-path="url(#clip0_335_3580)">
<path d="M8.92308 4.9375V1H5.96154C5.62492 1 5.30208 1.13828 5.06406 1.38442C4.82603 1.63056 4.69231 1.9644 4.69231 2.3125V11.9375C4.69231 12.2856 4.82603 12.6194 5.06406 12.8656C5.30208 13.1117 5.62492 13.25 5.96154 13.25H12.7308C13.0674 13.25 13.3902 13.1117 13.6283 12.8656C13.8663 12.6194 14 12.2856 14 11.9375V6.25H10.1923C9.85569 6.25 9.53285 6.11172 9.29483 5.86558C9.0568 5.61944 8.92308 5.2856 8.92308 4.9375ZM9.76923 4.9375V1.21875L13.7885 5.375H10.1923C10.0801 5.375 9.97249 5.32891 9.89315 5.24686C9.8138 5.16481 9.76923 5.05353 9.76923 4.9375ZM3 3.625C3 3.39294 3.08915 3.17038 3.24783 3.00628C3.40652 2.84219 3.62174 2.75 3.84615 2.75V11.9375C3.84615 12.5177 4.06902 13.0741 4.46574 13.4843C4.86245 13.8945 5.4005 14.125 5.96154 14.125H12.3077C12.3077 14.3571 12.2185 14.5796 12.0599 14.7437C11.9012 14.9078 11.686 15 11.4615 15H6.00215C5.20593 15 4.44232 14.6729 3.87931 14.0907C3.3163 13.5085 3 12.7189 3 11.8955V3.625Z" fill="#606EEA"/>
</g>
<defs>
<clipPath id="clip0_335_3580">
<rect width="16" height="16" fill="white"/>
</clipPath>
</defs>
</svg>
