<svg width="16" height="16" viewBox="0 0 16 16" fill="none" xmlns="http://www.w3.org/2000/svg">
<path d="M1 2.6573C1 2.21776 1.17779 1.79622 1.49426 1.48541C1.81072 1.17461 2.23995 1 2.6875 1H10.1875C10.6351 1 11.0643 1.17461 11.3807 1.48541C11.6972 1.79622 11.875 2.21776 11.875 2.6573V3.20974H13.0375C13.69 3.20974 14.284 3.57877 14.563 4.15772L15.838 6.79983C15.9445 7.02154 16 7.26388 16 7.50916V11.4963C16 11.9358 15.8222 12.3574 15.5057 12.6682C15.1893 12.979 14.7601 13.1536 14.3125 13.1536H12.9692C12.8815 13.6694 12.6104 14.1379 12.204 14.4758C11.7977 14.8138 11.2825 14.9992 10.75 14.9992C10.2175 14.9992 9.70232 14.8138 9.29597 14.4758C8.88963 14.1379 8.61848 13.6694 8.53075 13.1536H6.97C6.88233 13.6702 6.61068 14.1394 6.2035 14.4776C5.79632 14.8157 5.28008 15.0009 4.74682 15C4.21356 14.9991 3.69796 14.8122 3.29194 14.4727C2.88593 14.1332 2.6159 13.6631 2.53 13.1462C2.11157 13.1077 1.72284 12.9172 1.43986 12.612C1.15688 12.3069 1.00003 11.909 1 11.4963V2.6573ZM14.875 10.2072H13.9375C13.7883 10.2072 13.6452 10.2655 13.5398 10.3691C13.4343 10.4727 13.375 10.6132 13.375 10.7597C13.375 10.9062 13.4343 11.0467 13.5398 11.1503C13.6452 11.2539 13.7883 11.3121 13.9375 11.3121H14.875V10.2072ZM14.6373 6.89264L13.5475 4.6306C13.5019 4.53605 13.4299 4.45615 13.3399 4.40021C13.2499 4.34427 13.1455 4.31459 13.039 4.31461H11.875V6.89264H14.6373ZM4.75 13.8901C5.04837 13.8901 5.33452 13.7737 5.5455 13.5665C5.75647 13.3593 5.875 13.0783 5.875 12.7853C5.875 12.4922 5.75647 12.2112 5.5455 12.004C5.33452 11.7968 5.04837 11.6804 4.75 11.6804C4.45163 11.6804 4.16548 11.7968 3.9545 12.004C3.74353 12.2112 3.625 12.4922 3.625 12.7853C3.625 13.0783 3.74353 13.3593 3.9545 13.5665C4.16548 13.7737 4.45163 13.8901 4.75 13.8901ZM11.875 12.7853C11.875 12.4922 11.7565 12.2112 11.5455 12.004C11.3345 11.7968 11.0484 11.6804 10.75 11.6804C10.4516 11.6804 10.1655 11.7968 9.9545 12.004C9.74353 12.2112 9.625 12.4922 9.625 12.7853C9.625 13.0783 9.74353 13.3593 9.9545 13.5665C10.1655 13.7737 10.4516 13.8901 10.75 13.8901C11.0484 13.8901 11.3345 13.7737 11.5455 13.5665C11.7565 13.3593 11.875 13.0783 11.875 12.7853Z" fill="#606EEA"/>
</svg>
