<svg width="16" height="16" viewBox="0 0 16 16" fill="none" xmlns="http://www.w3.org/2000/svg">
<g clip-path="url(#clip0_335_3579)">
<path d="M14.2858 1.71422C13.8283 1.25691 13.208 1 12.5612 1C11.9143 1 11.294 1.25691 10.8366 1.71422L6.26558 6.2852C6.20653 6.34408 6.16198 6.41588 6.13544 6.49493L4.79104 10.5282C4.75936 10.6229 4.7547 10.7246 4.77756 10.8218C4.80043 10.919 4.84992 11.008 4.92049 11.0786C4.99106 11.1493 5.07992 11.199 5.17712 11.222C5.27431 11.245 5.37599 11.2405 5.47077 11.209L9.50399 9.86456C9.58343 9.83817 9.65561 9.79361 9.7148 9.73442L14.2858 5.16343C14.7431 4.70599 15 4.08565 15 3.43882C15 2.792 14.7431 2.17166 14.2858 1.71422ZM12.8155 8.15447C12.8958 9.24867 12.6394 10.3412 12.0808 11.2855C11.5222 12.2298 10.6882 12.9807 9.69063 13.4374C8.69304 13.894 7.57965 14.0346 6.49985 13.8403C5.42006 13.646 4.42554 13.1261 3.64974 12.3503C2.87395 11.5745 2.35401 10.5799 2.15969 9.50015C1.96537 8.42035 2.10598 7.30696 2.56264 6.30938C3.0193 5.31179 3.77016 4.47775 4.71447 3.91918C5.65877 3.36061 6.75133 3.10424 7.84553 3.18446L8.79522 2.2337C7.43397 1.94427 6.01562 2.10266 4.75175 2.68525C3.48787 3.26784 2.4462 4.2434 1.78211 5.46641C1.11802 6.68943 0.8671 8.09436 1.06678 9.47165C1.26645 10.8489 1.90603 12.1248 2.89009 13.1088C3.87416 14.0929 5.14999 14.7325 6.52728 14.9321C7.90456 15.1318 9.3095 14.8809 10.5325 14.2168C11.7555 13.5527 12.7311 12.5111 13.3137 11.2472C13.8963 9.98331 14.0547 8.56496 13.7652 7.2037L12.8155 8.15447Z" fill="#606EEA"/>
</g>
<defs>
<clipPath id="clip0_335_3579">
<rect width="16" height="16" fill="white"/>
</clipPath>
</defs>
</svg>
