<svg width="16" height="16" viewBox="0 0 16 16" fill="none" xmlns="http://www.w3.org/2000/svg">
<g clip-path="url(#clip0_335_3589)">
<path d="M2 13.95C2 14.2285 2.10865 14.4955 2.30205 14.6925C2.49544 14.8894 2.75775 15 3.03125 15H4.0625V1H3.03125C2.75775 1 2.49544 1.11062 2.30205 1.30754C2.10865 1.50445 2 1.77152 2 2.05V13.95ZM4.75 1V15H11.625C11.9897 15 12.3394 14.8525 12.5973 14.5899C12.8551 14.3274 13 13.9713 13 13.6V2.4C13 2.0287 12.8551 1.6726 12.5973 1.41005C12.3394 1.1475 11.9897 1 11.625 1H4.75ZM9.5625 6.6H6.125V5.9H9.5625V6.6ZM11.625 5.2H6.125V4.5H11.625V5.2Z" fill="#606EEA"/>
</g>
<defs>
<clipPath id="clip0_335_3589">
<rect width="16" height="16" fill="white"/>
</clipPath>
</defs>
</svg>
