<svg width="16" height="16" viewBox="0 0 16 16" fill="none" xmlns="http://www.w3.org/2000/svg">
<g clip-path="url(#clip0_335_3587)">
<path d="M2.5 1C1.67188 1 1 1.67188 1 2.5V13.5C1 14.3281 1.67188 15 2.5 15H13.5C14.3281 15 15 14.3281 15 13.5V2.5C15 1.67188 14.3281 1 13.5 1H2.5ZM8.00603 3C9.47634 3 10.6798 4.20344 10.6798 5.67375V8.19103C10.9793 8.67303 11.1528 9.24066 11.1528 9.84716C11.1528 11.5821 9.73491 13 8 13C6.26509 13 4.84719 11.5821 4.84719 9.84719C4.84719 8.11225 6.26509 6.69438 8 6.69438C8.58687 6.69438 9.13731 6.85681 9.609 7.13869V5.67375C9.609 4.78209 8.89766 4.07078 8.00603 4.07078C7.11444 4.07078 6.40312 4.78209 6.40312 5.67375V6.03891H5.33234V5.67375C5.33234 4.20341 6.53572 2.99997 8.00603 2.99997V3ZM8 7.76512C6.84378 7.76512 5.91797 8.69097 5.91797 9.84716C5.91797 11.0034 6.84378 11.9292 8 11.9292C9.15622 11.9292 10.082 11.0034 10.082 9.84716C10.082 8.69097 9.15622 7.76512 8 7.76512ZM8.01025 8.97331C8.49813 8.97331 8.89369 9.36881 8.89369 9.85669C8.89369 10.3446 8.49813 10.7401 8.01025 10.7401C7.52238 10.7401 7.12691 10.3446 7.12691 9.85669C7.12691 9.36881 7.52238 8.97331 8.01025 8.97331Z" fill="#606EEA"/>
</g>
<defs>
<clipPath id="clip0_335_3587">
<rect width="16" height="16" fill="white"/>
</clipPath>
</defs>
</svg>
