<svg width="16" height="16" viewBox="0 0 16 16" fill="none" xmlns="http://www.w3.org/2000/svg">
<g clip-path="url(#clip0_335_3575)">
<rect x="1" y="1" width="14" height="14" rx="4" fill="#606EEA"/>
<path d="M4.77368 4.17281V7.62786C4.77368 7.72325 4.85091 7.80067 4.94649 7.80067C5.04205 7.80067 5.11931 7.72325 5.11931 7.62786V4.17281C5.11931 4.07742 5.04207 4 4.94649 4C4.85091 4 4.77368 4.07742 4.77368 4.17281Z" fill="white"/>
<path d="M5.11925 11.4624V10.3278C5.11925 10.2324 5.04201 10.155 4.94643 10.155C4.85085 10.155 4.77362 10.2324 4.77362 10.3278V11.4624C4.77362 11.5578 4.85085 11.6352 4.94643 11.6352C5.04199 11.6352 5.11925 11.558 5.11925 11.4624Z" fill="white"/>
<path d="M8.18877 5.20861V4.17281C8.18877 4.07742 8.11153 4 8.01595 4C7.92037 4 7.84314 4.07742 7.84314 4.17281V5.20861C7.84314 5.30399 7.92037 5.38142 8.01595 5.38142C8.11134 5.38142 8.18877 5.30399 8.18877 5.20861Z" fill="white"/>
<path d="M8.18877 11.4624V7.97347C8.18877 7.87808 8.11153 7.80066 8.01595 7.80066C7.92037 7.80066 7.84314 7.87808 7.84314 7.97347V11.4624C7.84314 11.5578 7.92037 11.6352 8.01595 11.6352C8.11134 11.6352 8.18877 11.5579 8.18877 11.4624Z" fill="white"/>
<path d="M11.0537 4C10.9581 4 10.8809 4.07742 10.8809 4.17281V7.00145C10.8809 7.09684 10.9581 7.17426 11.0537 7.17426C11.1493 7.17426 11.2265 7.09684 11.2265 7.00145V4.17279C11.2265 4.0774 11.1491 4 11.0537 4Z" fill="white"/>
<path d="M11.2265 11.4624V9.74471C11.2265 9.64932 11.1493 9.5719 11.0537 9.5719C10.9581 9.5719 10.8809 9.64932 10.8809 9.74471V11.4624C10.8809 11.5578 10.9581 11.6352 11.0537 11.6352C11.1491 11.6352 11.2265 11.5579 11.2265 11.4624Z" fill="white"/>
<path d="M5.99246 9.98904C6.48891 9.98904 6.89277 9.5852 6.89277 9.08873C6.89277 8.59227 6.48893 8.18842 5.99246 8.18842H3.90048C3.40402 8.18842 3 8.59227 3 9.08873C3 9.58518 3.40402 9.98904 3.90048 9.98904H5.99246ZM3.3456 9.08873C3.3456 8.78285 3.59444 8.53402 3.90048 8.53402H5.99226C6.29814 8.53402 6.54697 8.78285 6.54697 9.08873C6.54697 9.3946 6.29814 9.64343 5.99226 9.64343H3.90048C3.59461 9.64343 3.3456 9.3946 3.3456 9.08873Z" fill="white"/>
<path d="M9.96228 6.63303C9.96228 6.13657 9.55825 5.73254 9.0618 5.73254H6.97001C6.47356 5.73254 6.0697 6.13638 6.0697 6.63303C6.0697 7.12948 6.47353 7.53334 6.97001 7.53334H9.0618C9.55827 7.53334 9.96228 7.12948 9.96228 6.63303ZM9.0618 7.18773H6.97001C6.66433 7.18773 6.41531 6.9389 6.41531 6.63303C6.41531 6.32715 6.66414 6.07815 6.97001 6.07815H9.0618C9.36784 6.07815 9.61667 6.32715 9.61667 6.63303C9.61667 6.93888 9.36784 7.18773 9.0618 7.18773Z" fill="white"/>
<path d="M12.0995 7.46057H10.0077C9.51128 7.46057 9.10742 7.8644 9.10742 8.36105C9.10742 8.85751 9.51125 9.26136 10.0077 9.26136H12.0995C12.596 9.26136 13 8.85753 13 8.36105C13 7.86457 12.5961 7.46057 12.0995 7.46057ZM12.0995 8.91591H10.0077C9.70186 8.91591 9.45303 8.66707 9.45303 8.3612C9.45303 8.05516 9.70186 7.80632 10.0077 7.80632H12.0995C12.4056 7.80632 12.6544 8.05516 12.6544 8.3612C12.6544 8.6669 12.4055 8.91591 12.0995 8.91591Z" fill="white"/>
</g>
<defs>
<clipPath id="clip0_335_3575">
<rect width="16" height="16" fill="white"/>
</clipPath>
</defs>
</svg>
