<svg width="16" height="16" viewBox="0 0 16 16" fill="none" xmlns="http://www.w3.org/2000/svg">
<g clip-path="url(#clip0_335_3584)">
<path d="M4.05679 9.71825L4.24976 9.85404C4.39979 9.94365 4.54119 10.0449 4.66812 10.155C5.55036 11.0366 6.90391 11.741 7.85662 10.8599C7.86362 10.8534 7.87086 10.8476 7.87833 10.8422C9.07112 9.76608 10.6695 10.5575 11.68 11.5684C11.8842 11.745 12.1348 11.8962 12.4132 12.0068L12.5604 12.0684C12.5467 11.5191 12.3766 10.9836 12.0606 10.524L10.1151 7.69411V2.83354C10.5164 2.72925 10.8151 2.36686 10.8151 1.93332C10.815 1.41861 10.3964 1 9.88172 1H5.68172C5.16698 1 4.7484 1.41861 4.7484 1.93332C4.7484 2.36686 5.04707 2.72922 5.4484 2.83354V7.69411L4.05679 9.71825ZM7.08172 7.06668H6.61505C6.48601 7.06668 6.38172 6.96214 6.38172 6.83335C6.38172 6.70456 6.48601 6.60003 6.61505 6.60003H7.08172C7.21076 6.60003 7.31505 6.70456 7.31505 6.83335C7.31505 6.96214 7.21076 7.06668 7.08172 7.06668ZM7.5484 6.13332H6.61507C6.48604 6.13332 6.38175 6.02879 6.38175 5.9C6.38175 5.77121 6.48604 5.66668 6.61507 5.66668H7.5484C7.67743 5.66668 7.78172 5.77121 7.78172 5.9C7.78172 6.02879 7.67741 6.13332 7.5484 6.13332ZM6.38172 4.96668C6.38172 4.83789 6.48601 4.73335 6.61505 4.73335H7.08172C7.21076 4.73335 7.31505 4.83789 7.31505 4.96668C7.31505 5.09546 7.21076 5.2 7.08172 5.2H6.61505C6.48601 5.2 6.38172 5.09546 6.38172 4.96668ZM7.5484 4.26668H6.61507C6.48604 4.26668 6.38175 4.16214 6.38175 4.03335C6.38175 3.90456 6.48604 3.80003 6.61507 3.80003H7.5484C7.67743 3.80003 7.78172 3.90456 7.78172 4.03335C7.78172 4.16214 7.67741 4.26668 7.5484 4.26668ZM5.21505 1.93332C5.21505 1.67596 5.42434 1.46665 5.68172 1.46665H9.88172C10.1391 1.46665 10.3484 1.67594 10.3484 1.93332C10.3484 2.19068 10.1391 2.4 9.88172 2.4H5.68172C5.42436 2.4 5.21505 2.19071 5.21505 1.93332Z" fill="#606EEA"/>
<path d="M11.3619 11.9094C10.4795 11.0274 9.12544 10.3239 8.17344 11.2045C8.16668 11.2111 8.15919 11.2169 8.15173 11.2225C6.95916 12.2987 5.36083 11.5072 4.35002 10.4962C4.25598 10.4154 4.13605 10.3295 3.99534 10.2449L3.7928 10.1023L3.50277 10.5239C3.09537 11.1166 2.92737 11.835 3.02887 12.5467C3.22884 13.9453 4.44452 15 5.85734 15H9.70595C11.1137 15 12.3251 13.9528 12.5316 12.5619L12.2369 12.4389C11.9135 12.3105 11.6181 12.1318 11.3619 11.9094Z" fill="#606EEA"/>
</g>
<defs>
<clipPath id="clip0_335_3584">
<rect width="16" height="16" fill="white"/>
</clipPath>
</defs>
</svg>
