<svg width="16" height="16" viewBox="0 0 16 16" fill="none" xmlns="http://www.w3.org/2000/svg">
<g clip-path="url(#clip0_335_3565)">
<path d="M2.02439 4.40754C1.71018 4.60892 1.4516 4.88658 1.27256 5.21486C1.09351 5.54313 0.999767 5.91143 1 6.28571V10.4C1 12.3886 2.60488 14 4.58537 14H10.7317C11.5171 14 12.2075 13.5899 12.6022 12.9714H4.58537C3.90615 12.9714 3.25476 12.7005 2.77448 12.2183C2.29421 11.736 2.02439 11.082 2.02439 10.4V4.40754ZM2.70732 4.81829V10.0571C2.70728 10.6264 2.92418 11.1741 3.31353 11.5878C3.70288 12.0016 4.23516 12.2501 4.80117 12.2823L4.92683 12.2857H12.7805C13.3474 12.2858 13.8929 12.068 14.3049 11.677C14.717 11.2861 14.9645 10.7516 14.9966 10.1833L15 10.0571V4.81829L9.09268 7.94103C9.01901 7.98006 8.93696 8.00046 8.85366 8.00046C8.77036 8.00046 8.68831 7.98006 8.61463 7.94103L2.70732 4.81829ZM12.7805 2H4.92683C4.43125 1.99997 3.94991 2.16642 3.55945 2.47286C3.16899 2.7793 2.89186 3.20809 2.7722 3.69097L8.85366 6.90423L14.9351 3.69097C14.8206 3.22974 14.5624 2.81732 14.198 2.51386C13.8336 2.21041 13.3822 2.03181 12.9096 2.00411L12.7805 2Z" fill="#C7C7D2"/>
</g>
<defs>
<clipPath id="clip0_335_3565">
<rect width="16" height="16" fill="white"/>
</clipPath>
</defs>
</svg>
