<svg width="24" height="24" viewBox="0 0 24 24" fill="none" xmlns="http://www.w3.org/2000/svg">
<rect width="24" height="24" rx="12" fill="#BDBDBD"/>
<path d="M9.25227 13.5098V7.46875H10.3773V13.5098C10.3773 14.0723 10.262 14.5469 10.0316 14.9336C9.80109 15.3203 9.48273 15.6152 9.07648 15.8184C8.67414 16.0176 8.21125 16.1172 7.68781 16.1172C7.16437 16.1172 6.69953 16.0273 6.29328 15.8477C5.88703 15.668 5.56867 15.3945 5.3382 15.0273C5.10773 14.6602 4.9925 14.1973 4.9925 13.6387H6.12336C6.12336 13.998 6.18977 14.293 6.32258 14.5234C6.45539 14.7539 6.63898 14.9238 6.87336 15.0332C7.11164 15.1426 7.38312 15.1973 7.68781 15.1973C7.98469 15.1973 8.25031 15.1348 8.48469 15.0098C8.72297 14.8809 8.91047 14.6914 9.04719 14.4414C9.18391 14.1875 9.25227 13.877 9.25227 13.5098ZM14.7419 16H12.9606L12.9723 15.0801H14.7419C15.3512 15.0801 15.8591 14.9531 16.2653 14.6992C16.6716 14.4414 16.9762 14.082 17.1794 13.6211C17.3864 13.1562 17.4899 12.6133 17.4899 11.9922V11.4707C17.4899 10.9824 17.4313 10.5488 17.3141 10.1699C17.197 9.78711 17.0251 9.46484 16.7985 9.20312C16.572 8.9375 16.2946 8.73633 15.9665 8.59961C15.6423 8.46289 15.2692 8.39453 14.8473 8.39453H12.9255V7.46875H14.8473C15.4059 7.46875 15.9157 7.5625 16.3766 7.75C16.8376 7.93359 17.2341 8.20117 17.5661 8.55273C17.902 8.90039 18.1598 9.32227 18.3395 9.81836C18.5192 10.3105 18.6091 10.8652 18.6091 11.4824V11.9922C18.6091 12.6094 18.5192 13.166 18.3395 13.6621C18.1598 14.1543 17.9001 14.5742 17.5602 14.9219C17.2243 15.2695 16.818 15.5371 16.3415 15.7246C15.8688 15.9082 15.3356 16 14.7419 16ZM13.5641 7.46875V16H12.4333V7.46875H13.5641Z" fill="white"/>
</svg>
