<svg width="21" height="21" viewBox="0 0 21 21" fill="none" xmlns="http://www.w3.org/2000/svg">
<g clip-path="url(#clip0_1482_17185)">
<path d="M16.5672 2.50254C16.3253 2.52152 16.094 2.61104 15.9017 2.76017C15.7094 2.9093 15.5643 3.11158 15.4843 3.34234C15.4042 3.57309 15.3926 3.82233 15.4509 4.05962C15.5091 4.29691 15.6347 4.51199 15.8123 4.67861C16.5072 5.3771 17.0582 6.20704 17.4336 7.1207C17.809 8.03437 18.0014 9.01375 17.9997 10.0025C18.0008 10.9913 17.8082 11.9705 17.4328 12.8841C17.0575 13.7977 16.5068 14.6277 15.8123 15.3265C15.6916 15.4426 15.5951 15.5818 15.5286 15.7359C15.4621 15.8901 15.4268 16.0561 15.4249 16.2242C15.423 16.3922 15.4544 16.559 15.5174 16.7146C15.5804 16.8703 15.6736 17.0117 15.7917 17.1306C15.9097 17.2494 16.0501 17.3433 16.2046 17.4067C16.3592 17.4702 16.5248 17.5019 16.6917 17.4999C16.8586 17.498 17.0234 17.4625 17.1765 17.3955C17.3295 17.3285 17.4678 17.2314 17.583 17.1098C19.451 15.2229 20.5 12.6671 20.5 10.0025C20.5 7.33804 19.451 4.78221 17.583 2.89529C17.4688 2.77366 17.3316 2.6762 17.1795 2.60862C17.0274 2.54103 16.8634 2.50469 16.6972 2.5017C16.6539 2.49943 16.6105 2.49943 16.5672 2.5017V2.50254ZM4.14611 2.52772C3.8691 2.56472 3.61239 2.69413 3.41698 2.89529C1.54897 4.78221 0.5 7.33804 0.5 10.0025C0.5 12.6671 1.54897 15.2229 3.41698 17.1098C3.53225 17.2314 3.67048 17.3285 3.82355 17.3955C3.97661 17.4625 4.14144 17.498 4.30832 17.4999C4.47521 17.5019 4.6408 17.4702 4.79536 17.4067C4.94992 17.3433 5.09033 17.2494 5.20835 17.1306C5.32636 17.0117 5.4196 16.8703 5.48258 16.7146C5.54557 16.559 5.57702 16.3922 5.5751 16.2242C5.57318 16.0561 5.53792 15.8901 5.4714 15.7359C5.40488 15.5818 5.30843 15.4426 5.18773 15.3265C4.49279 14.628 3.94178 13.7981 3.56639 12.8844C3.191 11.9707 2.99863 10.9913 3.00033 10.0025C2.99917 9.01384 3.1918 8.03462 3.56716 7.12102C3.94252 6.20743 4.49323 5.37743 5.18773 4.67861C5.37668 4.49381 5.50284 4.25362 5.54819 3.99232C5.59355 3.73103 5.55578 3.46198 5.44029 3.22358C5.32479 2.98518 5.13747 2.78962 4.90506 2.66481C4.67265 2.54 4.40703 2.49231 4.14611 2.52856V2.52772ZM7.32347 5.30802C7.04941 5.3377 6.79278 5.45778 6.5935 5.64957C5.98878 6.19978 5.50499 6.87126 5.1732 7.62091C4.84142 8.37056 4.66896 9.1818 4.66692 10.0025C4.66692 11.7212 5.39189 13.2839 6.56767 14.3564C6.68914 14.4683 6.83131 14.555 6.98605 14.6116C7.1408 14.6682 7.3051 14.6935 7.46957 14.6861C7.63404 14.6788 7.79545 14.6389 7.9446 14.5687C8.09376 14.4985 8.22772 14.3994 8.33884 14.2771C8.44997 14.1547 8.53608 14.0116 8.59227 13.8557C8.64845 13.6999 8.6736 13.5344 8.66629 13.3688C8.65898 13.2031 8.61935 13.0406 8.54965 12.8904C8.47996 12.7401 8.38157 12.6052 8.2601 12.4933C7.91416 12.1789 7.63797 11.7946 7.44958 11.3654C7.26119 10.9362 7.16484 10.4718 7.16681 10.0025C7.16509 9.53312 7.26163 9.06861 7.45016 8.63929C7.63868 8.20997 7.91494 7.8255 8.26093 7.51094C8.46063 7.33598 8.60002 7.10169 8.65903 6.84183C8.71803 6.58197 8.6936 6.30995 8.58925 6.06497C8.48491 5.81999 8.30604 5.6147 8.07841 5.47866C7.85078 5.34262 7.58615 5.28287 7.32264 5.30802H7.32347ZM13.4949 5.30802C13.247 5.32178 13.0088 5.40958 12.8106 5.56021C12.6125 5.71085 12.4633 5.9175 12.3823 6.15382C12.3012 6.39014 12.2918 6.64542 12.3554 6.88712C12.4189 7.12882 12.5525 7.34599 12.7391 7.51094C13.0853 7.82533 13.3617 8.20977 13.5502 8.63913C13.7387 9.06848 13.8352 9.53308 13.8332 10.0025C13.8349 10.472 13.7384 10.9365 13.5498 11.3658C13.3613 11.7951 13.0851 12.1796 12.7391 12.4942C12.5998 12.5989 12.4837 12.7318 12.3983 12.8843C12.3129 13.0367 12.26 13.2055 12.2431 13.3797C12.2261 13.5539 12.2454 13.7298 12.2997 13.8961C12.354 14.0624 12.4422 14.2155 12.5585 14.3455C12.6749 14.4755 12.817 14.5797 12.9756 14.6513C13.1342 14.723 13.3059 14.7605 13.4797 14.7615C13.6536 14.7625 13.8257 14.727 13.9851 14.6573C14.1445 14.5875 14.2878 14.485 14.4057 14.3564C15.0106 13.8061 15.4946 13.1345 15.8266 12.3847C16.1585 11.6349 16.331 10.8235 16.3331 10.0025C16.3362 9.18333 16.1686 8.37256 15.8412 7.62262C15.5138 6.87268 15.0338 6.20024 14.4323 5.64873C14.3076 5.53023 14.1601 5.43882 13.9988 5.38021C13.8375 5.32159 13.666 5.29702 13.4949 5.30802ZM10.5 8.4819C10.2014 8.48207 9.90955 8.57139 9.66135 8.73858C9.41315 8.90578 9.21975 9.14333 9.1056 9.4212C8.99144 9.69908 8.96166 10.0048 9.02001 10.2997C9.07837 10.5946 9.22224 10.8655 9.43344 11.0781C9.64464 11.2907 9.91369 11.4354 10.2066 11.494C10.4994 11.5526 10.803 11.5225 11.0789 11.4074C11.3547 11.2922 11.5905 11.0973 11.7564 10.8473C11.9222 10.5972 12.0108 10.3033 12.0108 10.0025C12.0111 9.80265 11.9722 9.60465 11.8964 9.41991C11.8206 9.23516 11.7094 9.06731 11.569 8.92596C11.4287 8.78461 11.262 8.67255 11.0785 8.5962C10.8951 8.51986 10.6985 8.48073 10.5 8.48106V8.4819Z" fill="#070F3F"/>
</g>
<defs>
<clipPath id="clip0_1482_17185">
<rect width="20" height="20" fill="white" transform="translate(0.5 0.5)"/>
</clipPath>
</defs>
</svg>
