<svg width="16" height="16" viewBox="0 0 16 16" fill="none" xmlns="http://www.w3.org/2000/svg">
<g clip-path="url(#clip0_305_2195)">
<rect x="1" y="1" width="14" height="14" rx="4" fill="#C6CAD8"/>
<path d="M4.77344 4.17281V7.62786C4.77344 7.72325 4.85067 7.80067 4.94625 7.80067C5.04181 7.80067 5.11906 7.72325 5.11906 7.62786V4.17281C5.11906 4.07742 5.04183 4 4.94625 4C4.85067 4 4.77344 4.07742 4.77344 4.17281Z" fill="white"/>
<path d="M5.11906 11.4624V10.3278C5.11906 10.2324 5.04183 10.1549 4.94625 10.1549C4.85067 10.1549 4.77344 10.2324 4.77344 10.3278V11.4624C4.77344 11.5578 4.85067 11.6352 4.94625 11.6352C5.04181 11.6352 5.11906 11.5579 5.11906 11.4624Z" fill="white"/>
<path d="M8.1884 5.20861V4.17281C8.1884 4.07742 8.11117 4 8.01559 4C7.92001 4 7.84277 4.07742 7.84277 4.17281V5.20861C7.84277 5.30399 7.92001 5.38142 8.01559 5.38142C8.11097 5.38142 8.1884 5.30399 8.1884 5.20861Z" fill="white"/>
<path d="M8.1884 11.4624V7.97346C8.1884 7.87808 8.11117 7.80065 8.01559 7.80065C7.92001 7.80065 7.84277 7.87808 7.84277 7.97346V11.4624C7.84277 11.5578 7.92001 11.6352 8.01559 11.6352C8.11097 11.6352 8.1884 11.5579 8.1884 11.4624Z" fill="white"/>
<path d="M11.0537 4.00002C10.9581 4.00002 10.8809 4.07745 10.8809 4.17283V7.00147C10.8809 7.09686 10.9581 7.17428 11.0537 7.17428C11.1493 7.17428 11.2265 7.09686 11.2265 7.00147V4.17281C11.2265 4.07742 11.1491 4.00002 11.0537 4.00002Z" fill="white"/>
<path d="M11.2265 11.4624V9.74471C11.2265 9.64932 11.1493 9.57189 11.0537 9.57189C10.9581 9.57189 10.8809 9.64932 10.8809 9.74471V11.4624C10.8809 11.5578 10.9581 11.6352 11.0537 11.6352C11.1491 11.6352 11.2265 11.5579 11.2265 11.4624Z" fill="white"/>
<path d="M5.99246 9.98906C6.48891 9.98906 6.89277 9.58522 6.89277 9.08874C6.89277 8.59229 6.48893 8.18843 5.99246 8.18843H3.90048C3.40402 8.18843 3 8.59229 3 9.08874C3 9.5852 3.40402 9.98906 3.90048 9.98906H5.99246ZM3.3456 9.08874C3.3456 8.78287 3.59444 8.53404 3.90048 8.53404H5.99226C6.29814 8.53404 6.54697 8.78287 6.54697 9.08874C6.54697 9.39462 6.29814 9.64345 5.99226 9.64345H3.90048C3.59461 9.64345 3.3456 9.39462 3.3456 9.08874Z" fill="white"/>
<path d="M9.96191 6.63303C9.96191 6.13657 9.55789 5.73255 9.06143 5.73255H6.96965C6.47319 5.73255 6.06934 6.13638 6.06934 6.63303C6.06934 7.12949 6.47317 7.53334 6.96965 7.53334H9.06143C9.55791 7.53334 9.96191 7.12949 9.96191 6.63303ZM9.06143 7.18774H6.96965C6.66397 7.18774 6.41494 6.9389 6.41494 6.63303C6.41494 6.32716 6.66378 6.07816 6.96965 6.07816H9.06143C9.36747 6.07816 9.61631 6.32716 9.61631 6.63303C9.61631 6.93888 9.36747 7.18774 9.06143 7.18774Z" fill="white"/>
<path d="M12.0995 7.4606H10.0077C9.51128 7.4606 9.10742 7.86443 9.10742 8.36108C9.10742 8.85753 9.51125 9.26139 10.0077 9.26139H12.0995C12.596 9.26139 13 8.85756 13 8.36108C13 7.8646 12.5961 7.4606 12.0995 7.4606ZM12.0995 8.91593H10.0077C9.70186 8.91593 9.45303 8.6671 9.45303 8.36123C9.45303 8.05518 9.70186 7.80635 10.0077 7.80635H12.0995C12.4056 7.80635 12.6544 8.05518 12.6544 8.36123C12.6544 8.66693 12.4055 8.91593 12.0995 8.91593Z" fill="white"/>
</g>
<defs>
<clipPath id="clip0_305_2195">
<rect width="16" height="16" fill="white"/>
</clipPath>
</defs>
</svg>
