<svg width="16" height="16" viewBox="0 0 16 16" fill="none" xmlns="http://www.w3.org/2000/svg">
<path d="M0 7.99647C0 7.81297 0.0635201 7.6577 0.19056 7.53066C0.322306 7.40832 0.472872 7.34715 0.642258 7.34715H2.18086C2.35495 7.34715 2.49963 7.41067 2.61491 7.53771C2.73019 7.66475 2.78783 7.81767 2.78783 7.99647C2.78783 8.17527 2.73019 8.32701 2.61491 8.4517C2.49963 8.57639 2.35495 8.63873 2.18086 8.63873H0.642258C0.468166 8.63873 0.3176 8.57521 0.19056 8.44817C0.0635201 8.32113 0 8.17056 0 7.99647ZM2.15262 13.2122C2.15262 13.0381 2.21144 12.8852 2.32907 12.7534L3.43714 11.6806C3.55007 11.563 3.69828 11.5042 3.88178 11.5042C4.06058 11.5042 4.20997 11.5607 4.32995 11.6736C4.44993 11.7865 4.50992 11.93 4.50992 12.1041C4.50992 12.2876 4.44876 12.4476 4.32642 12.584L3.25364 13.6568C2.9478 13.8968 2.63961 13.8968 2.32907 13.6568C2.21144 13.5298 2.15262 13.3816 2.15262 13.2122ZM2.15262 2.78783C2.15262 2.61373 2.21144 2.46081 2.32907 2.32907C2.47493 2.20673 2.63491 2.14557 2.809 2.14557C2.97368 2.14557 3.12189 2.20673 3.25364 2.32907L4.32642 3.43714C4.44876 3.55007 4.50992 3.69828 4.50992 3.88178C4.50992 4.06058 4.44993 4.20997 4.32995 4.32995C4.20997 4.44993 4.06058 4.50992 3.88178 4.50992C3.69828 4.50992 3.55007 4.44876 3.43714 4.32642L2.32907 3.25364C2.21144 3.1266 2.15262 2.97133 2.15262 2.78783ZM4.07234 7.99647C4.07234 7.2954 4.24879 6.64255 4.60168 6.03794C4.95457 5.43332 5.43332 4.95457 6.03794 4.60168C6.64255 4.24879 7.2954 4.07234 7.99647 4.07234C8.52345 4.07234 9.02926 4.17703 9.5139 4.38641C9.99853 4.59579 10.4161 4.87575 10.7667 5.22629C11.1172 5.57683 11.396 5.99441 11.603 6.47905C11.81 6.96368 11.9135 7.46949 11.9135 7.99647C11.9135 8.70225 11.7383 9.35627 11.3877 9.95854C11.0372 10.5608 10.5608 11.0372 9.95854 11.3877C9.35627 11.7383 8.70225 11.9135 7.99647 11.9135C7.29069 11.9135 6.63667 11.7383 6.03441 11.3877C5.43214 11.0372 4.95457 10.5608 4.60168 9.95854C4.24879 9.35627 4.07234 8.70225 4.07234 7.99647ZM5.3498 7.99647C5.3498 8.73048 5.60741 9.35745 6.12263 9.87737C6.63785 10.3973 7.26246 10.6573 7.99647 10.6573C8.73048 10.6573 9.35745 10.3973 9.87737 9.87737C10.3973 9.35745 10.6573 8.73048 10.6573 7.99647C10.6573 7.27187 10.3973 6.65314 9.87737 6.14027C9.35745 5.62741 8.73048 5.37098 7.99647 5.37098C7.26717 5.37098 6.64373 5.62741 6.12616 6.14027C5.60859 6.65314 5.3498 7.27187 5.3498 7.99647ZM7.35421 13.8474C7.35421 13.6686 7.41656 13.518 7.54124 13.3957C7.66593 13.2733 7.81767 13.2122 7.99647 13.2122C8.17997 13.2122 8.33289 13.2733 8.45523 13.3957C8.57756 13.518 8.63873 13.6686 8.63873 13.8474V15.3436C8.63873 15.5271 8.57639 15.6824 8.4517 15.8094C8.32701 15.9365 8.17527 16 7.99647 16C7.81767 16 7.66593 15.9365 7.54124 15.8094C7.41656 15.6824 7.35421 15.5271 7.35421 15.3436V13.8474ZM7.35421 2.18086V0.642258C7.35421 0.468166 7.41773 0.3176 7.54477 0.19056C7.67181 0.0635201 7.82238 0 7.99647 0C8.17056 0 8.32113 0.0635201 8.44817 0.19056C8.57521 0.3176 8.63873 0.468166 8.63873 0.642258V2.18086C8.63873 2.35495 8.57639 2.49963 8.4517 2.61491C8.32701 2.73019 8.17527 2.78783 7.99647 2.78783C7.81767 2.78783 7.66593 2.73019 7.54124 2.61491C7.41656 2.49963 7.35421 2.35495 7.35421 2.18086ZM11.5112 12.1041C11.5112 11.93 11.5677 11.7889 11.6806 11.6806C11.7936 11.563 11.9347 11.5042 12.1041 11.5042C12.2876 11.5042 12.4382 11.563 12.5558 11.6806L13.6568 12.7534C13.7792 12.8852 13.8403 13.0381 13.8403 13.2122C13.8403 13.3863 13.7792 13.5345 13.6568 13.6568C13.3557 13.8921 13.0546 13.8921 12.7534 13.6568L11.6806 12.584C11.5677 12.457 11.5112 12.297 11.5112 12.1041ZM11.5112 3.88178C11.5112 3.69357 11.5677 3.54536 11.6806 3.43714L12.7534 2.32907C12.8852 2.20673 13.0334 2.14557 13.1981 2.14557C13.3769 2.14557 13.5286 2.20909 13.6533 2.33613C13.778 2.46317 13.8403 2.61373 13.8403 2.78783C13.8403 2.97603 13.7792 3.1313 13.6568 3.25364L12.5558 4.32642C12.4193 4.44876 12.2688 4.50992 12.1041 4.50992C11.9347 4.50992 11.7936 4.44993 11.6806 4.32995C11.5677 4.20997 11.5112 4.06058 11.5112 3.88178ZM13.2122 7.99647C13.2122 7.81767 13.2733 7.6624 13.3957 7.53066C13.518 7.40832 13.6615 7.34715 13.8262 7.34715H15.3507C15.5248 7.34715 15.6765 7.41185 15.8059 7.54124C15.9353 7.67064 16 7.82238 16 7.99647C16 8.17056 15.9353 8.32113 15.8059 8.44817C15.6765 8.57521 15.5248 8.63873 15.3507 8.63873H13.8262C13.6521 8.63873 13.5062 8.57639 13.3886 8.4517C13.271 8.32701 13.2122 8.17527 13.2122 7.99647Z" fill="#273854"/>
</svg>
