<svg width="17" height="16" viewBox="0 0 17 16" fill="none" xmlns="http://www.w3.org/2000/svg">
<path d="M14.8218 8.88889V13.3333C14.8218 13.8222 14.4218 14.2222 13.9329 14.2222H3.26628C2.77739 14.2222 2.37739 13.8222 2.37739 13.3333V8.88889C2.37739 8.4 1.97739 8 1.4885 8C0.999609 8 0.599609 8.4 0.599609 8.88889V14.2222C0.599609 15.2 1.39961 16 2.37739 16H14.8218C15.7996 16 16.5996 15.2 16.5996 14.2222V8.88889C16.5996 8.4 16.1996 8 15.7107 8C15.2218 8 14.8218 8.4 14.8218 8.88889ZM9.4885 8.59556L11.1596 6.92444C11.2419 6.84215 11.3396 6.77687 11.4471 6.73233C11.5547 6.68779 11.6699 6.66487 11.7863 6.66487C11.9027 6.66487 12.0179 6.68779 12.1254 6.73233C12.2329 6.77687 12.3306 6.84215 12.4129 6.92444C12.4952 7.00674 12.5605 7.10444 12.6051 7.21196C12.6496 7.31949 12.6725 7.43473 12.6725 7.55111C12.6725 7.66749 12.6496 7.78274 12.6051 7.89026C12.5605 7.99778 12.4952 8.09548 12.4129 8.17778L9.22183 11.3689C9.1396 11.4513 9.04192 11.5167 8.93439 11.5613C8.82685 11.6059 8.71158 11.6288 8.59516 11.6288C8.47875 11.6288 8.36348 11.6059 8.25594 11.5613C8.14841 11.5167 8.05073 11.4513 7.9685 11.3689L4.77739 8.17778C4.61118 8.01158 4.51781 7.78616 4.51781 7.55111C4.51781 7.31607 4.61118 7.09065 4.77739 6.92444C4.94359 6.75824 5.16901 6.66487 5.40405 6.66487C5.6391 6.66487 5.86452 6.75824 6.03072 6.92444L7.71072 8.59556V0.888889C7.71072 0.4 8.11072 0 8.59961 0C9.0885 0 9.4885 0.4 9.4885 0.888889V8.59556Z" fill="white"/>
</svg>
