<svg width="14" height="14" viewBox="0 0 14 14" fill="none" xmlns="http://www.w3.org/2000/svg">
<rect width="14" height="14" rx="4" fill="#606EEA"/>
<path fill-rule="evenodd" clip-rule="evenodd" d="M10.4692 9.96388C10.6122 9.89409 10.769 9.85747 10.9281 9.85674C11.14 9.85674 11.3471 9.91957 11.5233 10.0373C11.6995 10.155 11.8368 10.3223 11.9179 10.5181C11.999 10.7139 12.0202 10.9293 11.9789 11.1371C11.9376 11.345 11.8355 11.5359 11.6857 11.6857C11.5359 11.8355 11.345 11.9376 11.1371 11.9789C10.9293 12.0202 10.7139 11.999 10.5181 11.9179C10.3223 11.8368 10.155 11.6995 10.0373 11.5233C9.91957 11.3471 9.85674 11.14 9.85674 10.9281C9.85765 10.769 9.89439 10.6122 9.96423 10.4692L8.63751 9.14249H7.71399V8.42824H8.93357L10.4692 9.96388ZM10.7297 11.225C10.7884 11.2643 10.8575 11.2852 10.9281 11.2852C11.0228 11.2852 11.1137 11.2476 11.1806 11.1806C11.2476 11.1137 11.2852 11.0228 11.2852 10.9281C11.2852 10.8575 11.2643 10.7884 11.225 10.7297C11.1858 10.671 11.13 10.6252 11.0648 10.5982C10.9995 10.5711 10.9277 10.5641 10.8584 10.5778C10.7892 10.5916 10.7255 10.6256 10.6756 10.6756C10.6256 10.7255 10.5916 10.7892 10.5778 10.8584C10.5641 10.9277 10.5711 10.9995 10.5982 11.0648C10.6252 11.13 10.671 11.1858 10.7297 11.225ZM10.3119 6.12592C10.492 5.99803 10.7073 5.92903 10.9281 5.92837C11.1242 5.92802 11.3166 5.98157 11.4842 6.08316C11.6519 6.18476 11.7885 6.33049 11.8789 6.50443C11.9694 6.67838 12.0103 6.87384 11.9972 7.06947C11.9841 7.26509 11.9175 7.45335 11.8046 7.61367C11.6917 7.77399 11.537 7.9002 11.3572 7.97852C11.1775 8.05683 10.9797 8.08423 10.7854 8.05772C10.5912 8.03122 10.4079 7.95183 10.2557 7.82822C10.1035 7.70462 9.98824 7.54156 9.92245 7.35687H7.71399V6.64262H9.92245C9.99582 6.4343 10.1319 6.25381 10.3119 6.12592ZM10.7297 7.29668C10.7884 7.33592 10.8575 7.35687 10.9281 7.35687C11.0228 7.35687 11.1137 7.31924 11.1806 7.25227C11.2476 7.18529 11.2852 7.09446 11.2852 6.99974C11.2852 6.92911 11.2643 6.86006 11.225 6.80133C11.1858 6.74261 11.13 6.69683 11.0648 6.6698C10.9995 6.64277 10.9277 6.6357 10.8584 6.64948C10.7892 6.66326 10.7255 6.69727 10.6756 6.74722C10.6256 6.79716 10.5916 6.8608 10.5778 6.93007C10.5641 6.99935 10.5711 7.07115 10.5982 7.13641C10.6252 7.20166 10.671 7.25744 10.7297 7.29668ZM10.1708 2.31411C10.3717 2.11325 10.6441 2.00028 10.9281 2C11.0874 1.99985 11.2446 2.03522 11.3885 2.10352C11.5323 2.17182 11.6591 2.27134 11.7597 2.39484C11.8602 2.51833 11.9319 2.66269 11.9696 2.8174C12.0074 2.97211 12.0101 3.13329 11.9776 3.28919C11.9452 3.4451 11.8784 3.5918 11.7821 3.71863C11.6858 3.84547 11.5625 3.94923 11.421 4.02237C11.2796 4.09551 11.1236 4.13619 10.9644 4.14145C10.8053 4.1467 10.647 4.1164 10.501 4.05275L8.92964 5.57124H7.71399V4.857H8.64109L9.98102 3.56171C9.9006 3.4107 9.85796 3.24246 9.85674 3.07137C9.85702 2.78731 9.96999 2.51497 10.1708 2.31411ZM10.7297 3.36831C10.7884 3.40755 10.8575 3.4285 10.9281 3.4285C11.0228 3.4285 11.1137 3.39087 11.1806 3.3239C11.2476 3.25692 11.2852 3.16609 11.2852 3.07137C11.2852 3.00074 11.2643 2.93169 11.225 2.87297C11.1858 2.81424 11.13 2.76846 11.0648 2.74143C10.9995 2.7144 10.9277 2.70733 10.8584 2.72111C10.7892 2.73489 10.7255 2.7689 10.6756 2.81885C10.6256 2.86879 10.5916 2.93243 10.5778 3.0017C10.5641 3.07098 10.5711 3.14278 10.5982 3.20804C10.6252 3.2733 10.671 3.32907 10.7297 3.36831ZM8.42824 3.4285H7.71399C7.52462 3.42869 7.34306 3.504 7.20915 3.63791C7.07524 3.77181 6.99993 3.95337 6.99974 4.14275V9.85674C6.99993 10.0461 7.07524 10.2277 7.20915 10.3616C7.34306 10.4955 7.52462 10.5708 7.71399 10.571H8.42824V11.2852H7.71399C7.51047 11.2846 7.30948 11.2401 7.12463 11.155C6.93978 11.0698 6.7754 10.9459 6.64262 10.7917C6.50984 10.9459 6.34546 11.0698 6.16061 11.155C5.97576 11.2401 5.77476 11.2846 5.57124 11.2852H5.21412C4.36197 11.2843 3.545 10.9454 2.94244 10.3428C2.33988 9.74024 2.00095 8.92326 2 8.07112V5.92837C2.00095 5.07622 2.33988 4.25925 2.94244 3.65669C3.545 3.05413 4.36197 2.71519 5.21412 2.71425H5.57124C5.77476 2.71493 5.97576 2.75935 6.16061 2.8445C6.34546 2.92966 6.50984 3.05355 6.64262 3.20779C6.7754 3.05355 6.93978 2.92966 7.12463 2.8445C7.30948 2.75935 7.51047 2.71493 7.71399 2.71425H8.42824V3.4285ZM5.21412 10.571H5.57124C5.76062 10.5708 5.94218 10.4955 6.07609 10.3616C6.20999 10.2277 6.2853 10.0461 6.28549 9.85674V8.42824H5.57124C5.47653 8.42824 5.38569 8.46586 5.31872 8.53284C5.25175 8.59981 5.21412 8.69065 5.21412 8.78536V9.49961H4.49987V8.78536C4.50015 8.50131 4.61312 8.22896 4.81398 8.0281C5.01484 7.82724 5.28719 7.71427 5.57124 7.71399H6.28549V6.28549H5.57124V5.57124H6.28549V4.14275C6.2853 3.95337 6.20999 3.77181 6.07609 3.63791C5.94218 3.504 5.76062 3.42869 5.57124 3.4285H5.21412C4.61359 3.42957 4.03349 3.64663 3.57977 4.04004C3.12604 4.43344 2.82897 4.97693 2.74282 5.57124H3.78562C3.88034 5.57124 3.97117 5.53362 4.03815 5.46664C4.10512 5.39967 4.14275 5.30884 4.14275 5.21412V4.49987H4.857V5.21412C4.85671 5.49818 4.74374 5.77052 4.54288 5.97138C4.34202 6.17224 4.06968 6.28521 3.78562 6.28549H2.71425V7.71399H3.4285V8.42824H2.74282C2.82897 9.02255 3.12604 9.56604 3.57977 9.95945C4.03349 10.3528 4.61359 10.5699 5.21412 10.571Z" fill="white"/>
</svg>
