<svg width="16" height="16" viewBox="0 0 16 16" fill="none" xmlns="http://www.w3.org/2000/svg">
<g clip-path="url(#clip0_305_2227)">
<path fill-rule="evenodd" clip-rule="evenodd" d="M2.13477 1.12814C2.22106 1.04609 2.33809 1 2.46012 1C2.58215 1 2.69919 1.04609 2.78548 1.12814C2.87177 1.21019 2.92024 1.32147 2.92024 1.4375V14.5625C2.92024 14.6785 2.87177 14.7898 2.78548 14.8719C2.69919 14.9539 2.58215 15 2.46012 15C2.33809 15 2.22106 14.9539 2.13477 14.8719C2.04848 14.7898 2 14.6785 2 14.5625V1.4375C2 1.32147 2.04848 1.21019 2.13477 1.12814ZM13.54 1.73764C13.6208 1.73764 13.7001 1.75785 13.7701 1.79625C13.8389 1.83405 13.8963 1.88817 13.9367 1.95335C13.977 2.01852 13.9988 2.09252 14.0001 2.16813V8.7C13.9999 8.78079 13.9761 8.85994 13.9314 8.92867C13.8868 8.99739 13.8229 9.05302 13.7471 9.08938C12.731 9.5062 11.6326 9.71061 10.5262 9.68875C9.56232 9.63499 8.62137 9.38746 7.76548 8.9625C7.16639 8.65664 6.50965 8.46633 5.83297 8.4025C5.14965 8.40058 4.47692 8.56313 3.87746 8.875V1.37187C4.48926 1.12711 5.14622 1.00069 5.80997 1C6.61425 1.06515 7.39581 1.28705 8.10597 1.65188C8.84439 2.02379 9.65602 2.24577 10.4894 2.30375C11.4567 2.32573 12.418 2.15277 13.3099 1.79625C13.3799 1.75785 13.4592 1.73764 13.54 1.73764Z" fill="#C6CAD8"/>
</g>
<defs>
<clipPath id="clip0_305_2227">
<rect width="16" height="16" fill="white"/>
</clipPath>
</defs>
</svg>
