<svg width="25" height="24" viewBox="0 0 25 24" fill="none" xmlns="http://www.w3.org/2000/svg">
<rect x="0.5" width="24" height="24" rx="12" fill="#06C270"/>
<path d="M13.7 10.8H18.5V13.2H13.7V18H11.3V13.2H6.5V10.8H11.3V6H13.7V10.8ZM12.5 24C9.3174 24 6.26516 22.7357 4.01472 20.4853C1.76428 18.2348 0.5 15.1826 0.5 12C0.5 8.8174 1.76428 5.76516 4.01472 3.51472C6.26516 1.26428 9.3174 0 12.5 0C15.6826 0 18.7348 1.26428 20.9853 3.51472C23.2357 5.76516 24.5 8.8174 24.5 12C24.5 15.1826 23.2357 18.2348 20.9853 20.4853C18.7348 22.7357 15.6826 24 12.5 24ZM12.5 21.6C15.0461 21.6 17.4879 20.5886 19.2882 18.7882C21.0886 16.9879 22.1 14.5461 22.1 12C22.1 9.45392 21.0886 7.01212 19.2882 5.21178C17.4879 3.41143 15.0461 2.4 12.5 2.4C9.95392 2.4 7.51212 3.41143 5.71178 5.21178C3.91143 7.01212 2.9 9.45392 2.9 12C2.9 14.5461 3.91143 16.9879 5.71178 18.7882C7.51212 20.5886 9.95392 21.6 12.5 21.6Z" fill="white"/>
</svg>
