<svg width="36" height="36" viewBox="0 0 36 36" fill="none" xmlns="http://www.w3.org/2000/svg">
<g filter="url(#filter0_i_826_29442)">
<rect width="36" height="36" rx="18" fill="#F2F3F4"/>
<path d="M18.8 17.2H22V18.8H18.8V22H17.2V18.8H14V17.2H17.2V14H18.8V17.2ZM18 26C15.8783 26 13.8434 25.1571 12.3431 23.6569C10.8429 22.1566 10 20.1217 10 18C10 15.8783 10.8429 13.8434 12.3431 12.3431C13.8434 10.8429 15.8783 10 18 10C20.1217 10 22.1566 10.8429 23.6569 12.3431C25.1571 13.8434 26 15.8783 26 18C26 20.1217 25.1571 22.1566 23.6569 23.6569C22.1566 25.1571 20.1217 26 18 26ZM18 24.4C19.6974 24.4 21.3253 23.7257 22.5255 22.5255C23.7257 21.3253 24.4 19.6974 24.4 18C24.4 16.3026 23.7257 14.6747 22.5255 13.4745C21.3253 12.2743 19.6974 11.6 18 11.6C16.3026 11.6 14.6747 12.2743 13.4745 13.4745C12.2743 14.6747 11.6 16.3026 11.6 18C11.6 19.6974 12.2743 21.3253 13.4745 22.5255C14.6747 23.7257 16.3026 24.4 18 24.4Z" fill="#06C270"/>
</g>
<defs>
<filter id="filter0_i_826_29442" x="0" y="0" width="36" height="36" filterUnits="userSpaceOnUse" color-interpolation-filters="sRGB">
<feFlood flood-opacity="0" result="BackgroundImageFix"/>
<feBlend mode="normal" in="SourceGraphic" in2="BackgroundImageFix" result="shape"/>
<feColorMatrix in="SourceAlpha" type="matrix" values="0 0 0 0 0 0 0 0 0 0 0 0 0 0 0 0 0 0 127 0" result="hardAlpha"/>
<feOffset/>
<feGaussianBlur stdDeviation="5"/>
<feComposite in2="hardAlpha" operator="arithmetic" k2="-1" k3="1"/>
<feColorMatrix type="matrix" values="0 0 0 0 0.717647 0 0 0 0 0.729412 0 0 0 0 0.780392 0 0 0 0.3 0"/>
<feBlend mode="normal" in2="shape" result="effect1_innerShadow_826_29442"/>
</filter>
</defs>
</svg>
