<svg width="16" height="16" viewBox="0 0 16 16" fill="none" xmlns="http://www.w3.org/2000/svg">
<path d="M7.44983 1.02166C8.86308 0.910238 10.2769 1.23054 11.5041 1.94019C12.7313 2.64984 13.7142 3.71538 14.3226 4.99582C14.931 6.27626 15.1363 7.71126 14.9113 9.11093C14.6863 10.5106 14.0416 11.809 13.0626 12.8342C12.0836 13.8595 10.8163 14.5634 9.42851 14.8527C8.04071 15.142 6.59777 15.0031 5.29063 14.4544C3.98349 13.9057 2.87375 12.9731 2.10825 11.7799C1.34276 10.5867 0.957588 9.18917 1.00371 7.77228C1.00629 7.6861 1.02583 7.60127 1.06119 7.52264C1.09656 7.44401 1.14707 7.37312 1.20984 7.31401C1.27261 7.2549 1.3464 7.20873 1.42701 7.17814C1.50762 7.14755 1.59346 7.13313 1.67964 7.13572C1.76582 7.1383 1.85065 7.15784 1.92928 7.1932C2.00791 7.22857 2.07881 7.27908 2.13792 7.34185C2.19703 7.40462 2.24319 7.47841 2.27379 7.55902C2.30438 7.63963 2.31879 7.72547 2.31621 7.81165C2.27186 9.1529 2.70322 10.4666 3.534 11.5205C4.36478 12.5744 5.54146 13.3006 6.85599 13.5707C8.17051 13.8408 9.53819 13.6373 10.7172 12.9964C11.8962 12.3554 12.8106 11.3181 13.2986 10.068C13.7867 8.81795 13.817 7.43555 13.3842 6.16528C12.9514 4.89501 12.0833 3.8187 10.9335 3.12666C9.78377 2.43462 8.42631 2.17144 7.10122 2.38365C5.77612 2.59586 4.56874 3.26979 3.69258 4.28628L3.51408 4.50328H5.5957L5.68495 4.51028C5.84203 4.53189 5.98596 4.60964 6.09016 4.72915C6.19435 4.84866 6.25175 5.00185 6.25175 5.16041C6.25175 5.31896 6.19435 5.47215 6.09016 5.59166C5.98596 5.71117 5.84203 5.78892 5.68495 5.81053L5.5957 5.81666H2.09571L2.00646 5.81053C1.86457 5.79105 1.73296 5.72569 1.63169 5.62442C1.53042 5.52315 1.46506 5.39154 1.44558 5.24966L1.43946 5.16041V1.66041L1.44558 1.57116C1.46506 1.42928 1.53042 1.29766 1.63169 1.19639C1.73296 1.09513 1.86457 1.02977 2.00646 1.01028L2.09571 1.00416L2.18496 1.01028C2.32684 1.02977 2.45845 1.09513 2.55972 1.19639C2.66099 1.29766 2.72635 1.42928 2.74583 1.57116L2.75196 1.66041L2.75108 3.36928C3.95206 2.00511 5.63778 1.16319 7.44983 1.02253V1.02166ZM7.78058 4.50328L7.86983 4.50941C8.01171 4.52889 8.14332 4.59425 8.24459 4.69552C8.34586 4.79678 8.41122 4.9284 8.4307 5.07028L8.43683 5.15953V7.9989L9.96808 7.99978L10.0573 8.0059C10.2151 8.02681 10.3598 8.10431 10.4647 8.22398C10.5696 8.34366 10.6274 8.49735 10.6274 8.65647C10.6274 8.81558 10.5696 8.96928 10.4647 9.08895C10.3598 9.20863 10.2151 9.28613 10.0573 9.30703L9.96808 9.31228H7.78058L7.69133 9.30703C7.54932 9.2875 7.4176 9.22201 7.31632 9.12057C7.21504 9.01913 7.14976 8.88732 7.13045 8.74528L7.12433 8.65603V5.15953L7.13045 5.07028C7.14993 4.9284 7.2153 4.79678 7.31656 4.69552C7.41783 4.59425 7.54944 4.52889 7.69133 4.50941L7.78058 4.50328Z" fill="#475366"/>
</svg>
