<svg width="16" height="16" viewBox="0 0 16 16" fill="none" xmlns="http://www.w3.org/2000/svg">
<circle cx="8" cy="8" r="7" fill="#070F3F"/>
<path d="M12.3983 8.64708L7.15703 8.35L6.22268 9.31549L7.15703 8.19086L12.3983 8.64708Z" fill="white"/>
<path d="M2.55203 8.79563V8.82916C2.59035 8.97433 3.11637 9.10248 3.55996 9.23063C4.30689 9.12877 5.11606 8.91941 5.42728 8.82745V9.25185C5.06231 9.27731 4.46887 9.49587 4.21777 9.60197C4.21777 9.64441 4.21989 9.74414 4.22838 9.80356C4.2793 9.81204 5.02765 9.63026 5.39545 9.53831V10.2492C5.94716 10.2279 7.15456 10.1855 7.57046 10.1855C7.62351 9.06087 8.0479 9.12453 8.154 9.12453C8.46805 9.09907 8.52534 9.77173 8.51473 10.1112L11.39 9.82478C11.4301 9.25185 11.5385 9.16697 11.6764 9.06087C11.8886 9.1118 11.9346 9.5277 11.9311 9.72929L13.13 9.60197V7.3633C13.0791 7.12564 12.8647 7.06623 12.7693 7.05562L10.6261 6.46147L9.37412 6.11135L8.13278 5.76123L7.23095 5.5172C6.84899 5.35593 6.07448 5.32269 5.73497 5.32622V5.10342C5.82833 5.06098 5.86582 4.89476 5.87289 4.81695H5.90472V4.68964H5.94716V4.51988H5.97899V4.41378H6.01082V4.35012V4.28646H6.04265V4.24403H6.07448V4.18037H6.10631V4.11671L6.14875 4.09549V4H6.18058V4.11671H6.21241V4.18037H6.24424V4.28646H6.27607V4.41378H6.3079V4.58354H6.38216L6.45643 4.28646H7.66595C7.87814 4.3289 7.91705 4.43146 7.90997 4.47744V5.57025C7.92766 5.57379 7.98424 5.57874 8.06912 5.57025C8.154 5.56176 8.21766 5.45354 8.23888 5.40049L8.24949 4.96549H8.9179V4.61537H9.50144V4.89122L9.84096 5.11403V5.63391H9.87278L10.0425 5.40049L10.2123 5.66574V6.06891H10.276C10.2335 5.89915 10.4174 5.79659 10.4775 5.81427H10.8277V4.68964H12.0054C12.1857 4.70655 12.2954 4.82756 12.2706 4.88061V6.06891C12.2536 6.17925 12.3201 6.21391 12.3555 6.21745H12.7586L12.7799 4.23342H13.565V9.67624C13.6216 9.67977 13.7878 9.69958 14 9.75051C11.2733 10.6099 7.01875 11.0555 6.2018 11.1404C3.37959 11.1828 2.6263 10.8539 2.55203 10.7478C2.67086 10.6035 3.00471 10.4967 3.15679 10.4614V10.3977C3.10374 10.3942 2.94247 10.3829 2.72179 10.3659C2.57325 10.1749 2.55203 9.47465 2.59447 9.57014C2.59447 9.64441 2.83496 9.67977 2.93398 9.68685V9.50648C2.95945 9.45555 2.68996 9.3438 2.55203 9.29429V8.82916C2.54911 8.81809 2.54902 8.80691 2.55203 8.79563Z" fill="white"/>
<path d="M5.36423 9.49591V9.36859L5.28996 9.46408L4.5791 9.67628L5.36423 9.49591Z" fill="white"/>
<path d="M2.39324 7.03436C2.39324 7.01887 2.38747 7.00257 2.3782 6.98644C2.32541 6.89456 2.24332 6.81255 2.33221 6.75487C2.40377 6.70843 2.5095 6.66317 2.59217 6.63284C2.61495 6.62448 2.64018 6.62057 2.66445 6.62057C2.81967 6.62057 2.93554 6.78109 2.90411 6.9331C2.86014 7.14575 2.81694 7.42071 2.77926 7.69288C2.71898 8.1283 3.06244 8.50912 3.50201 8.50912H4.56539C5.1006 8.50912 5.43552 8.17019 5.5019 7.63911C5.51039 7.57121 5.52666 7.29253 5.53373 7.16167L5.56556 6.99192C5.57264 6.95301 5.5889 6.8646 5.59739 6.82216C5.60698 6.77423 5.63388 6.67146 5.66246 6.60773C5.66813 6.59508 5.67166 6.5815 5.67166 6.56764V6.55767C5.67166 6.51624 5.63565 6.48265 5.59422 6.48265C5.57432 6.48265 5.55752 6.49038 5.54398 6.50496C5.51979 6.531 5.48223 6.57509 5.44484 6.63553C5.40896 6.69354 5.40488 6.76072 5.43219 6.82323C5.44446 6.85132 5.45789 6.88264 5.46916 6.91385C5.48751 6.96469 5.49129 7.0191 5.49129 7.07315V7.39509L5.45947 7.6285L5.44187 7.77803C5.43947 7.79847 5.43399 7.81844 5.42563 7.83725L5.41324 7.86513C5.40197 7.89049 5.38223 7.91114 5.35741 7.92356C5.3408 7.93186 5.32251 7.93619 5.30394 7.93619H5.17232C5.10941 7.93619 5.03699 7.93901 5.00727 7.88356C5.0003 7.87056 4.99395 7.85608 4.98827 7.84115C4.96463 7.77906 4.9608 7.71185 4.9608 7.64541V7.03436C4.99291 6.56883 5.3185 6.35124 5.50333 6.29008C5.5234 6.28344 5.54443 6.28106 5.56556 6.28106C5.62964 6.28106 5.68584 6.20448 5.7202 6.1504C5.75978 6.08811 5.83661 6.02791 5.91575 5.97711C6.0454 5.89387 6.03133 5.85291 5.89199 5.91866C5.70352 6.00761 5.57554 6.14083 5.51644 6.22681C5.50703 6.2405 5.49176 6.24923 5.47514 6.24923C5.44891 6.24923 5.42764 6.22796 5.42764 6.20172V6.18027C5.42764 6.14218 5.39682 6.1113 5.35874 6.1113H4.65312C4.09131 6.16147 3.69452 6.22892 3.4391 6.28739C3.21435 6.33884 2.98454 6.38716 2.75397 6.38716C2.60324 6.38716 2.44508 6.46151 2.31909 6.5442C2.17634 6.63788 2.06057 6.78105 2.0325 6.94948C1.99812 7.16264 1.99382 7.33793 2.00661 7.4775C2.03584 7.79659 2.36264 7.80105 2.39616 7.48238C2.41761 7.27845 2.39324 7.07415 2.39324 7.03436Z" fill="white"/>
<path d="M6.01156 5.52783C5.95594 5.52783 5.89377 5.55407 5.83134 5.59336C5.58552 5.74808 5.48793 5.92344 5.19793 5.93972C4.69265 5.96807 4.30647 5.65056 4.80628 5.57127C5.3224 5.4894 5.85117 5.46253 6.22216 5.46302C6.30114 5.46312 6.37907 5.47428 6.45547 5.49427L9.05657 6.17503L6.53479 5.58109C6.38452 5.5457 6.23071 5.52783 6.07633 5.52783H6.01156Z" fill="white"/>
<path d="M6.14202 6.14244C5.86832 6.45393 5.74681 7.02338 5.70469 7.56591C5.67307 7.97337 6.26875 8.07603 6.59315 7.82746C6.79823 7.67032 7.00824 7.69256 7.26578 7.7131C7.49515 7.73138 7.78206 7.7506 8.05108 7.7673C8.34059 7.78527 8.58651 7.55949 8.59548 7.26956L8.60963 6.81199C8.61037 6.78813 8.62992 6.76918 8.65379 6.76918C8.67734 6.76918 8.69675 6.78765 8.69791 6.81117L8.7234 7.32597C8.73797 7.6203 8.96894 7.85799 9.26274 7.88098L9.64372 7.9108C9.82226 7.92477 9.97741 7.78929 9.98762 7.6105L10.0102 7.2155C10.0108 7.20444 10.0218 7.19701 10.0323 7.20051C10.0389 7.20272 10.0435 7.20878 10.0438 7.21575L10.0571 7.5369C10.0674 7.78247 10.2604 7.98118 10.5056 7.99852L10.8296 8.02143C10.9895 8.03274 11.1255 7.90607 11.1255 7.74577V7.50656C11.1255 7.48605 11.1421 7.46942 11.1626 7.46942C11.1831 7.46942 11.1997 7.48605 11.1997 7.50656V7.77215C11.1997 7.92609 11.3153 8.05551 11.4682 8.07294L11.7761 8.10801C11.9157 8.12391 12.0379 8.01478 12.0379 7.87435V7.67678C12.0379 7.65601 12.0548 7.63918 12.0755 7.63918C12.0959 7.63918 12.1126 7.65536 12.1132 7.67575C12.1176 7.82589 12.1284 8.07757 12.144 8.11662C12.1505 8.13288 12.2154 8.14759 12.3045 8.16014C12.5618 8.19638 12.7806 7.98345 12.7806 7.7236C12.7806 7.51262 12.6355 7.32951 12.4299 7.2818C10.7419 6.88995 7.8886 6.23575 6.76815 6.00752C6.54277 5.96162 6.29384 5.96966 6.14202 6.14244Z" fill="white"/>
<path fill-rule="evenodd" clip-rule="evenodd" d="M8.0874 9.47499C8.08906 9.47505 8.09071 9.47514 8.09237 9.47525L8.09237 9.47526C8.13091 9.47789 8.16877 9.49256 8.20385 9.51848C8.24043 9.54551 8.27321 9.58421 8.3002 9.63222C8.32719 9.68024 8.34782 9.73657 8.36085 9.79779C8.37388 9.85902 8.37902 9.92386 8.37598 9.98838C8.37293 10.0529 8.36176 10.1158 8.34313 10.1731C8.32451 10.2305 8.29882 10.2812 8.26764 10.3221C8.23645 10.363 8.20041 10.3933 8.16172 10.4112C8.13275 10.4245 8.10275 10.4307 8.07275 10.4296L8.07275 10.4296C8.07239 10.4296 8.07204 10.4296 8.07168 10.4295C8.06195 10.4291 8.05222 10.4279 8.04252 10.4259L8.0425 10.4259C8.01377 10.4199 7.98569 10.4073 7.95915 10.3882C7.92335 10.3626 7.89107 10.3257 7.86417 10.2799C7.83727 10.2341 7.81628 10.1801 7.80241 10.1212C7.78854 10.0623 7.78207 9.9995 7.78337 9.93653C7.78466 9.87355 7.7937 9.81162 7.80996 9.75428C7.82622 9.69695 7.84938 9.64536 7.8781 9.60248C7.90683 9.5596 7.94055 9.52628 7.97732 9.50444C8.01254 9.48353 8.0499 9.47354 8.0874 9.47499ZM8.08536 9.53106C8.05267 9.53004 8.02013 9.53886 7.98943 9.55709C7.95697 9.57636 7.92722 9.60576 7.90187 9.6436C7.87652 9.68144 7.85608 9.72697 7.84174 9.77756C7.82739 9.82815 7.81941 9.88281 7.81827 9.93838C7.81713 9.99395 7.82284 10.0493 7.83508 10.1013C7.84732 10.1533 7.86584 10.2009 7.88958 10.2414C7.91332 10.2818 7.9418 10.3143 7.97339 10.337C7.99349 10.3514 8.01459 10.3617 8.03619 10.3676C8.07145 10.3687 8.13517 10.3292 8.15403 10.313C8.17759 10.3021 8.19292 10.2808 8.21017 10.2567C8.21475 10.2504 8.21946 10.2438 8.22449 10.2372C8.24852 10.2056 8.26831 10.1666 8.28265 10.1224C8.297 10.0782 8.30561 10.0298 8.30796 9.98009C8.3103 9.93039 8.30634 9.88043 8.2963 9.83327C8.28627 9.7861 8.27037 9.7427 8.24958 9.70572C8.24494 9.69747 8.24026 9.68881 8.23555 9.68009C8.21913 9.6497 8.20234 9.61864 8.18586 9.60215C8.16786 9.57516 8.11878 9.54147 8.08536 9.53106Z" fill="#070F3F"/>
<path fill-rule="evenodd" clip-rule="evenodd" d="M11.6073 9.24005C11.6323 9.22523 11.6588 9.2185 11.6854 9.22024L11.6854 9.22026C11.7117 9.22197 11.7375 9.23193 11.7615 9.24962C11.7863 9.26796 11.8085 9.29422 11.8268 9.3268C11.8451 9.35938 11.8591 9.39761 11.868 9.43915C11.8768 9.4807 11.8803 9.5247 11.8783 9.56848C11.8762 9.61226 11.8686 9.65491 11.856 9.69384C11.8433 9.73277 11.8259 9.76716 11.8047 9.79493C11.7836 9.8227 11.7591 9.84326 11.7329 9.85538C11.7066 9.86749 11.6791 9.8709 11.652 9.8654L11.652 9.86538C11.6323 9.86141 11.6131 9.85279 11.595 9.83977C11.5707 9.82234 11.5488 9.79735 11.5305 9.76625C11.5123 9.73515 11.498 9.69855 11.4886 9.65856C11.4792 9.61857 11.4748 9.57598 11.4757 9.53325C11.4766 9.49052 11.4827 9.44849 11.4937 9.40958C11.5048 9.37068 11.5205 9.33567 11.54 9.30657C11.5595 9.27747 11.5824 9.25487 11.6073 9.24005ZM11.6474 9.8258C11.6712 9.82679 11.7148 9.79981 11.7276 9.78876C11.7436 9.78138 11.754 9.76689 11.7657 9.75057C11.7688 9.74624 11.772 9.74179 11.7755 9.7373C11.7918 9.71591 11.8052 9.68941 11.8149 9.65943C11.8247 9.62944 11.8305 9.59658 11.8321 9.56285C11.8337 9.52912 11.831 9.49523 11.8242 9.46322C11.8174 9.43122 11.8066 9.40177 11.7925 9.37667C11.7893 9.37107 11.7862 9.36519 11.783 9.35928C11.7718 9.33866 11.7604 9.31758 11.7492 9.30639C11.737 9.28805 11.7036 9.26515 11.6809 9.25812C11.6587 9.25736 11.6365 9.26334 11.6155 9.27578C11.5935 9.28885 11.5733 9.3088 11.5561 9.33448C11.5389 9.36015 11.525 9.39105 11.5153 9.42538C11.5056 9.45971 11.5002 9.4968 11.4994 9.53451C11.4986 9.57221 11.5025 9.6098 11.5108 9.64509C11.5191 9.68037 11.5317 9.71267 11.5478 9.74012C11.5639 9.76756 11.5832 9.78961 11.6046 9.805C11.6183 9.81481 11.6327 9.82178 11.6474 9.8258Z" fill="#070F3F"/>
<path fill-rule="evenodd" clip-rule="evenodd" d="M7.95047 9.66349C7.97412 9.64945 7.99925 9.64308 8.02443 9.64472L8.02443 9.64477C8.04923 9.64645 8.0736 9.65589 8.09617 9.67256C8.11968 9.68994 8.14076 9.71482 8.15811 9.74568C8.17546 9.77655 8.18872 9.81276 8.1971 9.85212C8.20547 9.89148 8.20878 9.93317 8.20682 9.97464C8.20486 10.0161 8.19768 10.0565 8.18571 10.0934C8.17374 10.1303 8.15722 10.1629 8.13717 10.1892C8.11713 10.2155 8.09396 10.235 8.06908 10.2464C8.0442 10.2579 8.01813 10.2611 7.99245 10.2559L7.99243 10.2558C7.97395 10.252 7.95587 10.2439 7.93879 10.2317C7.91578 10.2151 7.89503 10.1915 7.87774 10.162C7.86044 10.1325 7.84695 10.0979 7.83803 10.06C7.82912 10.0221 7.82496 9.98174 7.82579 9.94126C7.82662 9.90078 7.83243 9.86096 7.84288 9.8241C7.85333 9.78725 7.86822 9.75408 7.88669 9.72651C7.90516 9.69895 7.92683 9.67753 7.95047 9.66349ZM7.9885 10.2184C8.0112 10.2191 8.05204 10.1937 8.06414 10.1833C8.07928 10.1763 8.08914 10.1626 8.10023 10.1472C8.10317 10.1431 8.1062 10.1388 8.10944 10.1346C8.12488 10.1143 8.1376 10.0892 8.14683 10.0608C8.15605 10.0324 8.16159 10.0013 8.16309 9.96931C8.1646 9.93736 8.16205 9.90525 8.1556 9.87493C8.14915 9.8446 8.13893 9.81671 8.12557 9.79293C8.12259 9.78763 8.11958 9.78206 8.11655 9.77645C8.10599 9.75692 8.0952 9.73695 8.0846 9.72635C8.07301 9.70896 8.04132 9.68724 8.01983 9.6806C7.99885 9.67997 7.97796 9.68564 7.95826 9.69734C7.93739 9.70973 7.91826 9.72863 7.90197 9.75295C7.88567 9.77728 7.87254 9.80654 7.86331 9.83907C7.85409 9.87159 7.84896 9.90673 7.84823 9.94245C7.84749 9.97818 7.85117 10.0138 7.85903 10.0472C7.8669 10.0806 7.87881 10.1112 7.89407 10.1372C7.90933 10.1632 7.92764 10.1841 7.94795 10.1987C7.96092 10.208 7.97455 10.2146 7.9885 10.2184Z" fill="#070F3F"/>
<path fill-rule="evenodd" clip-rule="evenodd" d="M11.5886 9.34805C11.6046 9.33853 11.6217 9.3342 11.6388 9.33532L11.6388 9.33538C11.6557 9.33646 11.6723 9.34287 11.6877 9.35425C11.7037 9.36604 11.718 9.38292 11.7297 9.40387C11.7415 9.42481 11.7505 9.44939 11.7562 9.47609C11.7619 9.5028 11.7641 9.53109 11.7628 9.55923C11.7615 9.58738 11.7566 9.6148 11.7485 9.63982C11.7404 9.66485 11.7291 9.68696 11.7155 9.70481C11.7019 9.72266 11.6862 9.73588 11.6693 9.74367C11.6525 9.75146 11.6348 9.75365 11.6173 9.75011L11.6173 9.75006C11.6047 9.74751 11.5923 9.74197 11.5807 9.73359C11.565 9.72238 11.551 9.70632 11.5392 9.68633C11.5275 9.66633 11.5183 9.6428 11.5123 9.61709C11.5062 9.59139 11.5034 9.56401 11.504 9.53654C11.5045 9.50907 11.5085 9.48205 11.5156 9.45704C11.5227 9.43203 11.5328 9.40952 11.5453 9.39082C11.5578 9.37211 11.5725 9.35758 11.5886 9.34805ZM11.6145 9.72466C11.6299 9.72517 11.6577 9.70792 11.666 9.70084C11.6763 9.6961 11.6829 9.68678 11.6905 9.67629C11.6925 9.67351 11.6945 9.67065 11.6967 9.66776C11.7072 9.65401 11.7158 9.63698 11.7221 9.6177C11.7284 9.59842 11.7321 9.5773 11.7331 9.55562C11.7342 9.53393 11.7324 9.51214 11.728 9.49157C11.7237 9.47099 11.7167 9.45206 11.7077 9.43593C11.7056 9.43233 11.7036 9.42855 11.7015 9.42475C11.6944 9.41149 11.6871 9.39794 11.6799 9.39075C11.672 9.37891 11.6504 9.36412 11.6358 9.35967C11.6215 9.3592 11.6073 9.36305 11.5939 9.37102C11.5797 9.37942 11.5667 9.39225 11.5557 9.40876C11.5446 9.42526 11.5357 9.44512 11.5294 9.46719C11.5232 9.48926 11.5197 9.51311 11.5192 9.53735C11.5187 9.56159 11.5212 9.58575 11.5265 9.60843C11.5319 9.63112 11.54 9.65188 11.5503 9.66953C11.5607 9.68717 11.5731 9.70134 11.5869 9.71123C11.5957 9.71758 11.605 9.72209 11.6145 9.72466Z" fill="#070F3F"/>
</svg>
