<svg width="16" height="16" viewBox="0 0 16 16" fill="none" xmlns="http://www.w3.org/2000/svg">
<g clip-path="url(#clip0_305_2279)">
<path d="M4.05664 9.71825L4.24961 9.85404C4.39964 9.94365 4.54104 10.0449 4.66796 10.155C5.55021 11.0366 6.90375 11.741 7.85646 10.8599C7.86346 10.8534 7.87071 10.8476 7.87818 10.8422C9.07096 9.76608 10.6693 10.5575 11.6799 11.5684C11.8841 11.745 12.1346 11.8962 12.413 12.0068L12.5603 12.0684C12.5465 11.5191 12.3764 10.9836 12.0605 10.524L10.1149 7.69411V2.83354C10.5163 2.72925 10.8149 2.36686 10.8149 1.93332C10.8149 1.41861 10.3963 1 9.88157 1H5.68157C5.16682 1 4.74825 1.41861 4.74825 1.93332C4.74825 2.36686 5.04692 2.72922 5.44825 2.83354V7.69411L4.05664 9.71825ZM7.08157 7.06668H6.61489C6.48586 7.06668 6.38157 6.96214 6.38157 6.83335C6.38157 6.70456 6.48586 6.60003 6.61489 6.60003H7.08157C7.21061 6.60003 7.31489 6.70456 7.31489 6.83335C7.31489 6.96214 7.21061 7.06668 7.08157 7.06668ZM7.54825 6.13332H6.61492C6.48589 6.13332 6.3816 6.02879 6.3816 5.9C6.3816 5.77121 6.48589 5.66668 6.61492 5.66668H7.54825C7.67728 5.66668 7.78157 5.77121 7.78157 5.9C7.78157 6.02879 7.67725 6.13332 7.54825 6.13332ZM6.38157 4.96668C6.38157 4.83789 6.48586 4.73335 6.61489 4.73335H7.08157C7.21061 4.73335 7.31489 4.83789 7.31489 4.96668C7.31489 5.09546 7.21061 5.2 7.08157 5.2H6.61489C6.48586 5.2 6.38157 5.09546 6.38157 4.96668ZM7.54825 4.26668H6.61492C6.48589 4.26668 6.3816 4.16214 6.3816 4.03335C6.3816 3.90456 6.48589 3.80003 6.61492 3.80003H7.54825C7.67728 3.80003 7.78157 3.90456 7.78157 4.03335C7.78157 4.16214 7.67725 4.26668 7.54825 4.26668ZM5.21489 1.93332C5.21489 1.67596 5.42418 1.46665 5.68157 1.46665H9.88157C10.1389 1.46665 10.3482 1.67594 10.3482 1.93332C10.3482 2.19068 10.139 2.4 9.88157 2.4H5.68157C5.42421 2.4 5.21489 2.19071 5.21489 1.93332Z" fill="#C6CAD8"/>
<path d="M11.3619 11.9095C10.4795 11.0275 9.12544 10.324 8.17344 11.2046C8.16668 11.2111 8.15919 11.2169 8.15173 11.2225C6.95916 12.2987 5.36083 11.5072 4.35002 10.4962C4.25598 10.4154 4.13605 10.3296 3.99534 10.2449L3.7928 10.1023L3.50277 10.524C3.09537 11.1166 2.92737 11.8351 3.02887 12.5467C3.22884 13.9454 4.44452 15 5.85734 15H9.70595C11.1137 15 12.3251 13.9528 12.5316 12.5619L12.2369 12.4389C11.9135 12.3106 11.6181 12.1318 11.3619 11.9095Z" fill="#C6CAD8"/>
</g>
<defs>
<clipPath id="clip0_305_2279">
<rect width="16" height="16" fill="white"/>
</clipPath>
</defs>
</svg>
