<svg width="24" height="32" viewBox="0 0 24 32" fill="none" xmlns="http://www.w3.org/2000/svg">
<path d="M24 12.0311C24 17.5078 16.6875 27.258 13.4812 31.281C12.7125 32.2397 11.2875 32.2397 10.5188 31.281C7.25625 27.258 0 17.5078 0 12.0311C0 5.38644 5.3725 0 12 0C18.625 0 24 5.38644 24 12.0311Z" fill="#4455EA"/>
<path d="M14.9157 6.57363L14.7172 6C16.3813 6.06201 17.9386 6.51162 18.0912 6.54262C18.5309 6.69146 18.8037 6.98706 18.8851 7.11626C18.8851 7.12142 19.0256 7.15656 19.5874 7.25579C20.2897 7.37982 20.3966 7.53485 20.5034 7.68989C20.6561 7.7519 21.0225 8.71312 21.1294 9.00769C21.2149 9.24334 21.0632 9.28159 20.9767 9.27125H20.7019C20.592 9.27125 20.422 8.89916 20.3508 8.71312L20.1218 8.1705L19.7706 7.59687C19.7554 7.5917 19.6179 7.56586 19.1905 7.50384C19.5325 7.92554 20.0251 9.3436 20.2286 9.99992C19.6485 10.1084 18.476 10.3348 18.4271 10.372C18.4882 10.3844 19.6943 10.2841 20.2897 10.2325C20.3101 10.2841 20.363 10.4402 20.4118 10.6511C19.7554 10.8526 17.9996 11.1472 17.9996 11.1782C19.0867 11.141 20.1014 11.049 20.4729 11.0076C20.4933 11.0438 20.534 11.1441 20.534 11.2557C20.5034 11.4107 17.5263 11.8448 17.4958 11.8758C18.6928 11.9379 20.0709 11.7983 20.6103 11.7208C20.6205 11.7208 20.6408 11.7642 20.6408 11.9379C20.2866 12.1735 18.2541 12.4288 17.2821 12.527C17.2261 12.527 17.105 12.5394 17.0683 12.589C18.4118 12.651 20.0811 12.5115 20.7477 12.434C20.7528 12.4288 20.763 12.4774 20.763 12.713C19.0897 13.1223 16.8393 12.8629 15.9233 12.682L15.9691 14.2169C15.8673 13.7569 15.6515 12.772 15.6027 12.5115C15.2821 12.2789 14.992 11.7673 14.8393 11.4883C14.6683 10.7937 14.0149 10.5684 13.7096 10.5425L13.8622 14.0774L15.3431 14.3409H13.5416L13.3431 9.10071L13.1905 6.8837L13.1447 10.5425L10.137 10.9456L9.89276 7.86043V10.9921L7.52635 11.3487L7.25154 8.74413V11.4107L5.05307 11.7828L4.80879 9.73636L4.77826 11.8448L2.96146 12.1394L2.67139 14.2944V10.279C2.79352 9.80767 3.07851 9.6175 3.20574 9.58132C5.28207 8.81648 9.52635 7.26199 9.89276 7.16277C12.6867 6.17054 13.9691 6 14.0912 6C14.8546 7.19377 15.8164 11.7208 15.9233 11.9844C15.8012 10.2232 15.2719 7.8811 15.0225 6.93021C15.0887 6.94572 15.2821 6.97672 15.5263 6.97672C15.7706 6.97672 15.8622 7.18344 15.8775 7.28679C15.964 7.50901 16.1584 8.03717 16.2439 8.37204C16.3294 8.97978 16.4831 9.0697 16.5492 9.0387C16.6205 9.03353 16.7874 9.02319 16.8851 9.02319C17.0073 8.99219 17.0836 8.89916 17.0836 8.74413C17.0073 8.24801 16.595 7.3178 16.534 7.16277C16.6317 6.76588 15.4958 6.60464 14.9157 6.57363Z" fill="white"/>
<path d="M16.2292 13.5502V13.0541C17.4964 13.1161 17.6949 13.5502 17.6644 13.5812C17.3896 13.4417 16.8094 13.4417 16.7331 13.4417C16.7575 13.5161 17.2725 13.7311 17.527 13.8293H16.4125C16.2903 13.8293 16.2394 13.6432 16.2292 13.5502Z" fill="white"/>
<path d="M20.8244 13.0544C20.4458 13.0917 20.2392 13.4214 20.1832 13.5816L20.5954 13.504L20.6107 13.5816L20.1832 13.8141L20.6718 13.7366C20.6667 13.8193 20.6595 14.0498 20.6718 14.3102C20.684 14.5707 19.659 14.6771 19.145 14.6978H16.5496L12.855 14.6203V13.5816C12.7817 12.6017 12.1323 12.2638 11.8168 12.2173H11.4962C10.6168 12.4529 10.4275 13.5351 10.4427 14.0467L5.61832 14.2482V14.4188H10.4427V14.7753L5.34351 14.8374V13.9226C5.34351 13.3893 4.89567 13.101 4.67176 13.0234H4.38168C3.83206 13.1599 3.66412 13.7004 3.64885 13.9536V14.8994H2.85496C2.90076 15.1164 3.87786 15.2404 3.93893 15.2404C3.97557 15.3893 4.17812 15.5608 4.27481 15.628V15.69H3.64885C3.50229 15.6776 2.48855 15.7572 2 15.7986L3.08397 15.8761L7.03817 15.9691L9.32824 16.0001H12.1527H13.8931L16.6565 15.9691L18.9924 15.9381L22 15.7831L20.3206 15.69C19.5471 15.6694 17.9695 15.628 17.8473 15.628C17.9328 15.566 18.117 15.2715 18.1985 15.1319H18.9313C19.0534 15.1319 19.771 15.0544 20.2748 15.0079C20.9618 14.8839 20.9924 14.5738 20.9924 14.5118C20.9313 13.5661 20.8397 13.1785 20.8244 13.0544Z" fill="white"/>
<path d="M5.09924 12.3103L3.31298 12.5893L6.35115 12.3103L7.52672 12.2017L8.85496 12.0622C9.48601 12.0002 10.745 11.8793 10.7328 11.8917C10.7176 11.9072 12.4733 11.7211 12.8855 11.6901C12.8733 11.2684 12.5445 11.256 12.3817 11.3025L10.6565 11.4886L7.74046 11.9227L5.09924 12.3103Z" fill="white"/>
<path d="M6.94656 12.7289L5.41985 12.9304L8.76336 12.8994C9.14504 12.8684 9.92977 12.8064 10.0153 12.8064C10.3695 12.7816 10.4885 12.486 10.5038 12.3413L9.17557 12.4963L8.24427 12.6048L6.94656 12.7289Z" fill="white"/>
<path d="M5.81679 13.6746V13.5816C7.23155 13.4575 10.0855 13.2095 10.1832 13.2095C10.1954 13.3955 9.8626 13.5764 9.69466 13.6436L5.81679 13.6746Z" fill="white"/>
<path d="M3.49585 9.89161C3.01951 9.99083 2.91061 10.7908 2.9157 11.1784C3.02562 10.6699 3.34827 10.3774 3.49585 10.2947L4.48821 9.89161L5.55691 9.50402L6.99203 8.9769L7.74012 8.71334L9.46531 8.09319L13.16 6.72888L11.7554 7.20949L9.83172 7.82963L7.70958 8.52729L5.49584 9.24046C4.9106 9.43167 3.69126 9.82959 3.49585 9.89161Z" fill="#606EEA" fill-opacity="0.15"/>
<path fill-rule="evenodd" clip-rule="evenodd" d="M4.66208 13.1612C4.76521 13.2248 4.87354 13.3593 4.98484 13.5882C5.03817 13.6979 5.06912 13.9126 4.99897 13.8129C4.92015 13.7008 4.54542 13.0894 4.66208 13.1612ZM4.6946 15.0737C4.77539 15.028 4.86002 14.9348 4.94692 14.7795C4.99668 14.6906 5.02894 14.5167 4.96573 14.5966C4.89445 14.6868 4.59459 15.1304 4.6946 15.0737ZM4.77814 13.8601C4.67436 13.6572 4.56592 13.6409 4.47248 13.7205C4.41733 13.7675 4.6612 13.957 4.72182 13.9966C4.77818 14.0335 4.80882 13.9201 4.77814 13.8601ZM4.54987 14.6119C4.61733 14.6119 4.67201 14.5009 4.67201 14.3639C4.67201 14.2269 4.61733 14.1158 4.54987 14.1158C4.48242 14.1158 4.42773 14.2269 4.42773 14.3639C4.42773 14.5009 4.48242 14.6119 4.54987 14.6119Z" fill="#606EEA" fill-opacity="0.15"/>
<path fill-rule="evenodd" clip-rule="evenodd" d="M11.7216 12.6801C11.8598 12.7652 12.005 12.9456 12.1542 13.2524C12.2257 13.3994 12.2672 13.6872 12.1731 13.5535C12.0675 13.4033 11.5652 12.5838 11.7216 12.6801ZM11.7657 15.4293C11.874 15.368 11.9874 15.2431 12.1039 15.0349C12.1706 14.9157 12.2138 14.6826 12.1291 14.7898C12.0336 14.9106 11.6316 15.5052 11.7657 15.4293ZM11.8779 13.6168C11.7388 13.3448 11.5935 13.323 11.4682 13.4297C11.3943 13.4927 11.7212 13.7466 11.8024 13.7998C11.878 13.8492 11.9191 13.6972 11.8779 13.6168ZM11.5709 14.625C11.6614 14.625 11.7346 14.4762 11.7346 14.2925C11.7346 14.1089 11.6614 13.9601 11.5709 13.9601C11.4805 13.9601 11.4072 14.1089 11.4072 14.2925C11.4072 14.4762 11.4805 14.625 11.5709 14.625Z" fill="#606EEA" fill-opacity="0.15"/>
<path d="M5.48038 15.2709C5.48038 15.3701 5.29717 15.5861 5.20557 15.6585H7.17503C7.07732 15.6213 6.99183 15.3587 6.96129 15.2709H5.48038Z" fill="#606EEA" fill-opacity="0.15"/>
<path d="M8.41167 15.612C8.53381 15.5251 8.62541 15.3277 8.65595 15.2399C9.22592 15.2347 10.3964 15.2275 10.5185 15.2399C10.543 15.3639 10.7119 15.5499 10.7934 15.612H8.41167Z" fill="#606EEA" fill-opacity="0.15"/>
<path d="M13.114 15.1313C13.1017 15.2182 12.9155 15.4879 12.8239 15.612H15.6788C15.5811 15.5623 15.4346 15.3019 15.3735 15.1779C14.6763 15.1624 13.2483 15.1313 13.114 15.1313Z" fill="#606EEA" fill-opacity="0.15"/>
</svg>
