<svg width="35" height="35" viewBox="0 0 35 35" fill="none" xmlns="http://www.w3.org/2000/svg">
<path fill-rule="evenodd" clip-rule="evenodd" d="M3.09972 20.0009C4.53193 25.7644 9.06876 30.3014 14.8323 31.7338V27.6964C11.2144 26.4807 8.35264 23.6187 7.13704 20.0009H3.09972ZM16.8893 28.1931V32.1046C17.2538 32.146 17.622 32.1753 17.9934 32.192L19.9544 28.2701C19.5515 28.3102 19.1429 28.3307 18.7294 28.3307C18.104 28.3307 17.4895 28.2837 16.8893 28.1931ZM22.5242 27.7303C27.4189 26.1337 30.9558 21.532 30.9558 16.1043C30.9558 14.7258 30.7277 13.4006 30.3071 12.1644L32.5079 7.76294C33.9839 10.1958 34.8337 13.0508 34.8337 16.1043C34.8337 24.4603 28.4696 31.3299 20.324 32.1306L22.5242 27.7303ZM31.1581 5.86272L29.1975 9.78388C28.1714 8.08807 26.7449 6.66165 25.049 5.63569L28.9703 3.67505C29.7676 4.33267 30.5004 5.06552 31.1581 5.86272ZM27.07 2.32535C24.6372 0.84963 21.7825 0 18.7294 0C10.3737 0 3.50424 6.3636 2.70316 14.5088L7.10366 12.3085C8.70057 7.41427 13.302 3.87788 18.7294 3.87788C20.1075 3.87788 21.4323 4.10588 22.6683 4.52621L27.07 2.32535ZM6.56369 14.8784C6.52355 15.2816 6.503 15.6905 6.503 16.1043C6.503 16.7295 6.54993 17.3438 6.64046 17.9438H2.72903C2.68758 17.5792 2.65829 17.2109 2.6416 16.8394L6.56369 14.8784Z" fill="#DADAE5"/>
<path d="M0.432129 17.9435H16.8886L16.8886 34.4L33.3451 1.487L0.432129 17.9435Z" fill="#070F3F"/>
<path d="M0.432129 17.9435H16.8886L16.8886 34.4L33.3451 1.487L0.432129 17.9435Z" fill="url(#paint0_linear_145_1401)"/>
<defs>
<linearGradient id="paint0_linear_145_1401" x1="-3.00406" y1="37.8364" x2="31.7208" y2="2.60827" gradientUnits="userSpaceOnUse">
<stop stop-color="#45E595"/>
<stop offset="0.442561" stop-color="#57E3C9"/>
<stop offset="1" stop-color="#F2E01D"/>
</linearGradient>
</defs>
</svg>
