<svg width="132" height="35" viewBox="0 0 132 35" fill="none" xmlns="http://www.w3.org/2000/svg">
<path d="M43.4695 22L50.9269 4.81659H51.1066L58.5639 22H54.7903L50.0284 9.91546L52.3869 8.2982L46.6816 22H43.4695ZM48.5684 16.0251H53.5325L54.678 18.7655H47.5576L48.5684 16.0251ZM70.7997 9.46622C70.1708 9.1218 69.5269 8.83728 68.868 8.61266C68.2241 8.38805 67.6176 8.27574 67.0486 8.27574C66.3448 8.27574 65.7907 8.41799 65.3864 8.70251C64.9821 8.98703 64.7799 9.41381 64.7799 9.98284C64.7799 10.3722 64.9297 10.7241 65.2292 11.0386C65.5436 11.3381 65.9405 11.6076 66.4196 11.8472C66.9138 12.0868 67.4229 12.3039 67.9471 12.4986C68.4262 12.6783 68.8979 12.8954 69.3622 13.15C69.8414 13.3896 70.2681 13.6966 70.6425 14.0709C71.0169 14.4303 71.3164 14.887 71.541 15.4411C71.7656 15.9802 71.8779 16.6466 71.8779 17.4402C71.8779 18.2788 71.6608 19.0575 71.2265 19.7763C70.7922 20.495 70.1558 21.0791 69.3172 21.5283C68.4787 21.9626 67.4454 22.1797 66.2175 22.1797C65.5886 22.1797 64.9446 22.1198 64.2858 22C63.6418 21.8652 63.0054 21.6706 62.3765 21.416C61.7476 21.1464 61.1411 20.8095 60.5571 20.4052L61.9946 17.867C62.384 18.1515 62.8033 18.4061 63.2525 18.6307C63.7167 18.8403 64.1809 19.0051 64.6451 19.1249C65.1094 19.2447 65.5361 19.3046 65.9255 19.3046C66.3148 19.3046 66.7042 19.2522 67.0935 19.1473C67.4978 19.0275 67.8273 18.8329 68.0818 18.5633C68.3514 18.2938 68.4861 17.9194 68.4861 17.4402C68.4861 17.1108 68.3738 16.8113 68.1492 16.5417C67.9396 16.2722 67.6476 16.0251 67.2732 15.8005C66.9138 15.5759 66.517 15.3812 66.0827 15.2165C65.5736 15.0218 65.0495 14.7972 64.5104 14.5426C63.9713 14.2881 63.4622 13.9811 62.983 13.6217C62.5187 13.2473 62.1369 12.7906 61.8374 12.2515C61.5529 11.6974 61.4106 11.0236 61.4106 10.2299C61.4106 9.27155 61.6203 8.44046 62.0396 7.73665C62.4738 7.03284 63.0803 6.47878 63.859 6.07446C64.6377 5.65517 65.5361 5.42306 66.5544 5.37814C67.8872 5.37814 68.9653 5.53537 69.7889 5.84984C70.6275 6.16431 71.3763 6.53868 72.0351 6.97294L70.7997 9.46622ZM76.066 22V5.46799H81.0076C82.6698 5.46799 84.0849 5.71507 85.2529 6.20923C86.421 6.7034 87.3569 7.36228 88.0607 8.18589C88.7795 9.00949 89.3036 9.93043 89.633 10.9487C89.9625 11.967 90.1272 12.9927 90.1272 14.026C90.1272 15.2539 89.9026 16.362 89.4533 17.3504C89.0191 18.3237 88.4201 19.1623 87.6564 19.8661C86.8927 20.5549 86.0092 21.0865 85.0059 21.4609C84.0026 21.8203 82.9394 22 81.8163 22H76.066ZM79.323 18.8553H81.2547C82.0783 18.8553 82.827 18.7505 83.5009 18.5409C84.1748 18.3162 84.7513 17.9943 85.2305 17.575C85.7246 17.1557 86.099 16.6316 86.3536 16.0027C86.6231 15.3587 86.7579 14.625 86.7579 13.8014C86.7579 12.7232 86.5782 11.8472 86.2188 11.1733C85.8744 10.4845 85.4401 9.9529 84.916 9.57853C84.4069 9.20416 83.8828 8.94959 83.3437 8.81482C82.8046 8.66508 82.3479 8.5902 81.9735 8.5902H79.323V18.8553ZM97.3134 15.8903C97.3134 16.4145 97.4706 16.9161 97.7851 17.3953C98.0996 17.8745 98.5114 18.2638 99.0205 18.5633C99.5446 18.8628 100.114 19.0126 100.728 19.0126C101.401 19.0126 102 18.8628 102.525 18.5633C103.049 18.2638 103.461 17.8745 103.76 17.3953C104.074 16.9161 104.232 16.4145 104.232 15.8903V5.46799H107.444V15.9577C107.444 17.1707 107.144 18.2489 106.545 19.1923C105.946 20.1207 105.138 20.8544 104.119 21.3935C103.101 21.9176 101.971 22.1797 100.728 22.1797C99.4997 22.1797 98.3766 21.9176 97.3583 21.3935C96.355 20.8544 95.5539 20.1207 94.9549 19.1923C94.3559 18.2489 94.0564 17.1707 94.0564 15.9577V5.46799H97.3134V15.8903ZM112.37 22V4.79413H112.392L121.579 17.8221L120.187 17.5076L129.351 4.79413H129.396V22H126.139V12.1392L126.341 13.8238L120.748 21.7754H120.703L114.953 13.8238L115.514 12.274V22H112.37Z" fill="#1117A3"/>
<path d="M46.2223 30.0186C46.1859 30.0502 46.1349 30.0818 46.0693 30.1133C46.0037 30.1425 45.9308 30.1692 45.8507 30.1935C45.7729 30.2178 45.6916 30.2372 45.6066 30.2518C45.524 30.2664 45.4463 30.2737 45.3734 30.2737C45.1621 30.2737 44.9714 30.2409 44.8014 30.1753C44.6338 30.1097 44.4893 30.0186 44.3678 29.902C44.2488 29.7854 44.1565 29.6482 44.0909 29.4903C44.0278 29.3325 43.9962 29.1612 43.9962 28.9766C43.9962 28.758 44.0314 28.5625 44.1019 28.39C44.1747 28.2152 44.2731 28.0682 44.397 27.9492C44.5233 27.8278 44.6678 27.7367 44.8305 27.6759C44.9933 27.6128 45.1657 27.5812 45.3479 27.5812C45.5009 27.5812 45.643 27.5994 45.7742 27.6359C45.9053 27.6723 46.0207 27.7185 46.1203 27.7743L46 28.0986C45.9515 28.0694 45.8907 28.0427 45.8179 28.0184C45.7474 27.9941 45.6746 27.9747 45.5993 27.9601C45.524 27.9431 45.4535 27.9346 45.388 27.9346C45.2325 27.9346 45.0916 27.9589 44.9653 28.0075C44.839 28.0536 44.7309 28.1217 44.6411 28.2115C44.5512 28.299 44.482 28.4058 44.4334 28.5321C44.3848 28.656 44.3605 28.7957 44.3605 28.9511C44.3605 29.0944 44.3848 29.2256 44.4334 29.3446C44.482 29.4636 44.5512 29.5668 44.6411 29.6543C44.7309 29.7393 44.8378 29.8061 44.9617 29.8547C45.088 29.9008 45.2264 29.9239 45.377 29.9239C45.4669 29.9239 45.5556 29.9154 45.643 29.8984C45.7304 29.879 45.8057 29.8522 45.8689 29.8182V29.2936H45.3442V28.9548H46.2223V30.0186ZM49.1296 27.6104C49.3215 27.6104 49.4854 27.6432 49.6214 27.7087C49.7575 27.7719 49.8619 27.8642 49.9348 27.9856C50.0101 28.1071 50.0477 28.254 50.0477 28.4265C50.0477 28.5309 50.0319 28.6341 50.0004 28.7362C49.9688 28.8357 49.9178 28.9268 49.8473 29.0094C49.7793 29.0896 49.6895 29.1539 49.5777 29.2025C49.466 29.2511 49.33 29.2754 49.1697 29.2754H48.7798V30.2445H48.4264V27.6104H49.1296ZM49.166 28.9365C49.2705 28.9365 49.3567 28.9195 49.4247 28.8855C49.4927 28.8515 49.5462 28.809 49.585 28.758C49.6239 28.7046 49.6518 28.6487 49.6688 28.5904C49.6858 28.5321 49.6943 28.4799 49.6943 28.4338C49.6943 28.3803 49.6858 28.3257 49.6688 28.2698C49.6518 28.2115 49.6227 28.1593 49.5814 28.1131C49.5425 28.0646 49.4903 28.0257 49.4247 27.9966C49.3616 27.965 49.2826 27.9492 49.1879 27.9492H48.7798V28.9365H49.166ZM53.486 28.0804C53.3962 28.0342 53.2978 27.9941 53.1909 27.9601C53.0841 27.9261 52.9796 27.9091 52.8776 27.9091C52.7367 27.9091 52.6238 27.9419 52.5388 28.0075C52.4562 28.0731 52.4149 28.1605 52.4149 28.2698C52.4149 28.3524 52.4416 28.4228 52.4951 28.4811C52.5485 28.537 52.6189 28.5856 52.7064 28.6269C52.7938 28.6682 52.8849 28.707 52.9796 28.7434C53.0622 28.775 53.1436 28.8102 53.2237 28.8491C53.3039 28.888 53.3755 28.9365 53.4387 28.9948C53.5043 29.0531 53.5553 29.1248 53.5917 29.2098C53.6306 29.2948 53.65 29.4005 53.65 29.5268C53.65 29.6652 53.6148 29.7915 53.5443 29.9057C53.4763 30.0198 53.378 30.1097 53.2492 30.1753C53.1205 30.2409 52.9675 30.2737 52.7902 30.2737C52.6736 30.2737 52.5618 30.2603 52.455 30.2336C52.3505 30.2069 52.2534 30.1729 52.1635 30.1316C52.0736 30.0878 51.9935 30.0429 51.923 29.9968L52.0797 29.7199C52.138 29.7612 52.2048 29.8012 52.2801 29.8401C52.3554 29.8765 52.4343 29.9069 52.5169 29.9312C52.5995 29.953 52.6796 29.964 52.7574 29.964C52.84 29.964 52.9213 29.9494 53.0015 29.9202C53.0841 29.8887 53.1521 29.8413 53.2055 29.7782C53.2589 29.715 53.2857 29.6312 53.2857 29.5268C53.2857 29.4369 53.2614 29.3628 53.2128 29.3045C53.1666 29.2438 53.1047 29.1928 53.027 29.1515C52.9493 29.1078 52.8667 29.0689 52.7792 29.0349C52.6967 29.0033 52.6129 28.9693 52.5278 28.9329C52.4428 28.894 52.3639 28.8479 52.291 28.7945C52.2182 28.7386 52.1599 28.6706 52.1161 28.5904C52.0724 28.5103 52.0506 28.4131 52.0506 28.299C52.0506 28.1605 52.0834 28.0403 52.1489 27.9383C52.2169 27.8338 52.3092 27.7525 52.4258 27.6942C52.5424 27.6334 52.676 27.6007 52.8266 27.5958C52.9966 27.5958 53.146 27.6164 53.2747 27.6577C53.4059 27.699 53.5213 27.75 53.6208 27.8108L53.486 28.0804ZM58.4572 30.2445V27.5266H58.4608L59.8416 29.4867L59.6923 29.4575L61.0694 27.5266H61.0767V30.2445H60.727V28.3281L60.7488 28.5066L59.7542 29.913H59.7469L58.7377 28.5066L58.7996 28.3427V30.2445H58.4572ZM63.1999 28.9293C63.1999 28.7471 63.2339 28.5759 63.3019 28.4155C63.3724 28.2528 63.4695 28.1095 63.5934 27.9856C63.7173 27.8593 63.8594 27.761 64.0197 27.6905C64.1824 27.6177 64.3573 27.5812 64.5443 27.5812C64.7289 27.5812 64.9014 27.6177 65.0617 27.6905C65.2244 27.761 65.3677 27.8593 65.4916 27.9856C65.6179 28.1095 65.7163 28.2528 65.7867 28.4155C65.8571 28.5759 65.8924 28.7471 65.8924 28.9293C65.8924 29.1163 65.8571 29.2912 65.7867 29.4539C65.7163 29.6166 65.6179 29.7599 65.4916 29.8838C65.3677 30.0053 65.2244 30.1012 65.0617 30.1716C64.9014 30.2396 64.7289 30.2737 64.5443 30.2737C64.3573 30.2737 64.1824 30.2396 64.0197 30.1716C63.8594 30.1036 63.7173 30.0089 63.5934 29.8875C63.4695 29.766 63.3724 29.6239 63.3019 29.4612C63.2339 29.2985 63.1999 29.1211 63.1999 28.9293ZM63.5643 28.9329C63.5643 29.0713 63.5898 29.2013 63.6408 29.3227C63.6918 29.4418 63.7622 29.5474 63.8521 29.6397C63.9419 29.732 64.0464 29.8049 64.1654 29.8583C64.2844 29.9093 64.4132 29.9348 64.5516 29.9348C64.6876 29.9348 64.8151 29.9093 64.9342 29.8583C65.0532 29.8049 65.1564 29.732 65.2438 29.6397C65.3313 29.5474 65.4005 29.4418 65.4515 29.3227C65.5025 29.2013 65.528 29.0701 65.528 28.9293C65.528 28.7908 65.5025 28.6609 65.4515 28.5394C65.4005 28.4155 65.3301 28.3075 65.2402 28.2152C65.1503 28.1229 65.0459 28.0512 64.9269 28.0002C64.8078 27.9468 64.6803 27.9201 64.5443 27.9201C64.4059 27.9201 64.2771 27.9468 64.1581 28.0002C64.0391 28.0536 63.9347 28.1265 63.8448 28.2188C63.7549 28.3111 63.6857 28.4192 63.6371 28.5431C63.5885 28.6645 63.5643 28.7945 63.5643 28.9329ZM70.2987 30.3283L68.2621 28.2625L68.3641 28.288L68.3714 30.2445H68.018V27.5302H68.0362L70.0509 29.6033L69.9672 29.5851L69.9599 27.6104H70.3096V30.3283H70.2987ZM72.5973 27.6104H72.9507V30.2445H72.5973V27.6104ZM75.0445 27.6104H76.7933V27.9492H76.0865V30.2445H75.7331V27.9492H75.0445V27.6104ZM78.6106 28.9293C78.6106 28.7471 78.6446 28.5759 78.7126 28.4155C78.783 28.2528 78.8802 28.1095 79.004 27.9856C79.1279 27.8593 79.27 27.761 79.4303 27.6905C79.5931 27.6177 79.7679 27.5812 79.955 27.5812C80.1396 27.5812 80.312 27.6177 80.4723 27.6905C80.6351 27.761 80.7784 27.8593 80.9022 27.9856C81.0285 28.1095 81.1269 28.2528 81.1973 28.4155C81.2678 28.5759 81.303 28.7471 81.303 28.9293C81.303 29.1163 81.2678 29.2912 81.1973 29.4539C81.1269 29.6166 81.0285 29.7599 80.9022 29.8838C80.7784 30.0053 80.6351 30.1012 80.4723 30.1716C80.312 30.2396 80.1396 30.2737 79.955 30.2737C79.7679 30.2737 79.5931 30.2396 79.4303 30.1716C79.27 30.1036 79.1279 30.0089 79.004 29.8875C78.8802 29.766 78.783 29.6239 78.7126 29.4612C78.6446 29.2985 78.6106 29.1211 78.6106 28.9293ZM78.9749 28.9329C78.9749 29.0713 79.0004 29.2013 79.0514 29.3227C79.1024 29.4418 79.1729 29.5474 79.2627 29.6397C79.3526 29.732 79.457 29.8049 79.5761 29.8583C79.6951 29.9093 79.8238 29.9348 79.9622 29.9348C80.0983 29.9348 80.2258 29.9093 80.3448 29.8583C80.4638 29.8049 80.567 29.732 80.6545 29.6397C80.7419 29.5474 80.8111 29.4418 80.8622 29.3227C80.9132 29.2013 80.9387 29.0701 80.9387 28.9293C80.9387 28.7908 80.9132 28.6609 80.8622 28.5394C80.8111 28.4155 80.7407 28.3075 80.6508 28.2152C80.561 28.1229 80.4565 28.0512 80.3375 28.0002C80.2185 27.9468 80.091 27.9201 79.955 27.9201C79.8165 27.9201 79.6878 27.9468 79.5688 28.0002C79.4497 28.0536 79.3453 28.1265 79.2554 28.2188C79.1656 28.3111 79.0963 28.4192 79.0478 28.5431C78.9992 28.6645 78.9749 28.7945 78.9749 28.9329ZM84.1281 27.6104C84.2617 27.6104 84.3844 27.6286 84.4961 27.665C84.6103 27.699 84.7086 27.7512 84.7912 27.8217C84.8762 27.8897 84.9418 27.9747 84.988 28.0767C85.0365 28.1763 85.0608 28.2929 85.0608 28.4265C85.0608 28.5309 85.045 28.6329 85.0135 28.7325C84.9843 28.8321 84.9345 28.9232 84.8641 29.0058C84.7936 29.0859 84.7013 29.1515 84.5872 29.2025C84.4755 29.2511 84.337 29.2754 84.1718 29.2754H83.782V30.2445H83.4286V27.6104H84.1281ZM84.1646 28.9365C84.269 28.9365 84.3552 28.9208 84.4232 28.8892C84.4937 28.8576 84.5483 28.8175 84.5872 28.769C84.6261 28.7179 84.654 28.6633 84.671 28.605C84.688 28.5467 84.6965 28.4921 84.6965 28.4411C84.6965 28.3876 84.6868 28.333 84.6673 28.2771C84.6503 28.2188 84.6212 28.1654 84.5799 28.1168C84.541 28.0682 84.4888 28.0281 84.4232 27.9966C84.3601 27.965 84.2824 27.9492 84.1901 27.9492H83.782V28.9365H84.1646ZM84.5981 29.1369L85.2867 30.2445H84.8787L84.1791 29.1479L84.5981 29.1369ZM87.3604 27.6104H87.7138V30.2445H87.3604V27.6104ZM92.2815 30.3283L90.2448 28.2625L90.3468 28.288L90.3541 30.2445H90.0007V27.5302H90.0189L92.0337 29.6033L91.9499 29.5851L91.9426 27.6104H92.2924V30.3283H92.2815ZM96.6422 30.0186C96.6058 30.0502 96.5548 30.0818 96.4892 30.1133C96.4236 30.1425 96.3508 30.1692 96.2706 30.1935C96.1929 30.2178 96.1115 30.2372 96.0265 30.2518C95.9439 30.2664 95.8662 30.2737 95.7933 30.2737C95.582 30.2737 95.3913 30.2409 95.2213 30.1753C95.0537 30.1097 94.9092 30.0186 94.7878 29.902C94.6687 29.7854 94.5764 29.6482 94.5109 29.4903C94.4477 29.3325 94.4161 29.1612 94.4161 28.9766C94.4161 28.758 94.4514 28.5625 94.5218 28.39C94.5947 28.2152 94.693 28.0682 94.8169 27.9492C94.9432 27.8278 95.0877 27.7367 95.2505 27.6759C95.4132 27.6128 95.5857 27.5812 95.7678 27.5812C95.9208 27.5812 96.0629 27.5994 96.1941 27.6359C96.3253 27.6723 96.4406 27.7185 96.5402 27.7743L96.42 28.0986C96.3714 28.0694 96.3107 28.0427 96.2378 28.0184C96.1674 27.9941 96.0945 27.9747 96.0192 27.9601C95.9439 27.9431 95.8735 27.9346 95.8079 27.9346C95.6524 27.9346 95.5116 27.9589 95.3853 28.0075C95.259 28.0536 95.1509 28.1217 95.061 28.2115C94.9711 28.299 94.9019 28.4058 94.8533 28.5321C94.8048 28.656 94.7805 28.7957 94.7805 28.9511C94.7805 29.0944 94.8048 29.2256 94.8533 29.3446C94.9019 29.4636 94.9711 29.5668 95.061 29.6543C95.1509 29.7393 95.2578 29.8061 95.3816 29.8547C95.5079 29.9008 95.6464 29.9239 95.797 29.9239C95.8868 29.9239 95.9755 29.9154 96.0629 29.8984C96.1504 29.879 96.2257 29.8522 96.2888 29.8182V29.2936H95.7642V28.9548H96.6422V30.0186ZM103.464 30.0478C103.42 30.0769 103.361 30.1097 103.285 30.1461C103.21 30.1826 103.121 30.2129 103.019 30.2372C102.92 30.2615 102.811 30.2737 102.692 30.2737C102.488 30.2712 102.303 30.2348 102.138 30.1644C101.975 30.0939 101.837 29.998 101.722 29.8765C101.608 29.7551 101.52 29.6154 101.456 29.4575C101.396 29.2972 101.365 29.1272 101.365 28.9475C101.365 28.7507 101.397 28.5698 101.46 28.4046C101.526 28.237 101.617 28.0925 101.733 27.9711C101.85 27.8472 101.987 27.7512 102.145 27.6832C102.305 27.6152 102.48 27.5812 102.67 27.5812C102.828 27.5812 102.971 27.6031 103.1 27.6468C103.228 27.6881 103.339 27.7379 103.431 27.7962L103.289 28.1241C103.216 28.0755 103.128 28.0294 103.023 27.9856C102.921 27.9419 102.807 27.9201 102.681 27.9201C102.552 27.9201 102.43 27.9456 102.316 27.9966C102.202 28.0476 102.101 28.1192 102.014 28.2115C101.926 28.3038 101.857 28.4119 101.806 28.5358C101.758 28.6572 101.733 28.7884 101.733 28.9293C101.733 29.0726 101.755 29.2062 101.799 29.33C101.845 29.4515 101.909 29.5571 101.992 29.647C102.077 29.7369 102.179 29.8073 102.298 29.8583C102.417 29.9093 102.551 29.9348 102.699 29.9348C102.832 29.9348 102.951 29.9142 103.056 29.8729C103.16 29.8316 103.247 29.7854 103.315 29.7344L103.464 30.0478ZM105.425 28.9293C105.425 28.7471 105.459 28.5759 105.527 28.4155C105.598 28.2528 105.695 28.1095 105.819 27.9856C105.943 27.8593 106.085 27.761 106.245 27.6905C106.408 27.6177 106.583 27.5812 106.77 27.5812C106.954 27.5812 107.127 27.6177 107.287 27.6905C107.45 27.761 107.593 27.8593 107.717 27.9856C107.843 28.1095 107.942 28.2528 108.012 28.4155C108.083 28.5759 108.118 28.7471 108.118 28.9293C108.118 29.1163 108.083 29.2912 108.012 29.4539C107.942 29.6166 107.843 29.7599 107.717 29.8838C107.593 30.0053 107.45 30.1012 107.287 30.1716C107.127 30.2396 106.954 30.2737 106.77 30.2737C106.583 30.2737 106.408 30.2396 106.245 30.1716C106.085 30.1036 105.943 30.0089 105.819 29.8875C105.695 29.766 105.598 29.6239 105.527 29.4612C105.459 29.2985 105.425 29.1211 105.425 28.9293ZM105.79 28.9329C105.79 29.0713 105.815 29.2013 105.866 29.3227C105.917 29.4418 105.988 29.5474 106.077 29.6397C106.167 29.732 106.272 29.8049 106.391 29.8583C106.51 29.9093 106.639 29.9348 106.777 29.9348C106.913 29.9348 107.041 29.9093 107.16 29.8583C107.279 29.8049 107.382 29.732 107.469 29.6397C107.557 29.5474 107.626 29.4418 107.677 29.3227C107.728 29.2013 107.753 29.0701 107.753 28.9293C107.753 28.7908 107.728 28.6609 107.677 28.5394C107.626 28.4155 107.555 28.3075 107.466 28.2152C107.376 28.1229 107.271 28.0512 107.152 28.0002C107.033 27.9468 106.906 27.9201 106.77 27.9201C106.631 27.9201 106.503 27.9468 106.384 28.0002C106.264 28.0536 106.16 28.1265 106.07 28.2188C105.98 28.3111 105.911 28.4192 105.863 28.5431C105.814 28.6645 105.79 28.7945 105.79 28.9329ZM110.243 30.2445V27.5266H110.247L111.628 29.4867L111.478 29.4575L112.856 27.5266H112.863V30.2445H112.513V28.3281L112.535 28.5066L111.54 29.913H111.533L110.524 28.5066L110.586 28.3427V30.2445H110.243ZM115.853 27.6104C116.045 27.6104 116.209 27.6432 116.345 27.7087C116.481 27.7719 116.586 27.8642 116.658 27.9856C116.734 28.1071 116.771 28.254 116.771 28.4265C116.771 28.5309 116.756 28.6341 116.724 28.7362C116.692 28.8357 116.641 28.9268 116.571 29.0094C116.503 29.0896 116.413 29.1539 116.301 29.2025C116.19 29.2511 116.054 29.2754 115.893 29.2754H115.503V30.2445H115.15V27.6104H115.853ZM115.89 28.9365C115.994 28.9365 116.08 28.9195 116.148 28.8855C116.216 28.8515 116.27 28.809 116.309 28.758C116.348 28.7046 116.375 28.6487 116.392 28.5904C116.409 28.5321 116.418 28.4799 116.418 28.4338C116.418 28.3803 116.409 28.3257 116.392 28.2698C116.375 28.2115 116.346 28.1593 116.305 28.1131C116.266 28.0646 116.214 28.0257 116.148 27.9966C116.085 27.965 116.006 27.9492 115.912 27.9492H115.503V28.9365H115.89ZM118.332 30.2445L119.483 27.5011H119.505L120.653 30.2445H120.249L119.389 28.0549L119.64 27.8909L118.678 30.2445H118.332ZM119.006 29.2462H119.986L120.103 29.5523H118.904L119.006 29.2462ZM124.96 30.3283L122.923 28.2625L123.025 28.288L123.033 30.2445H122.679V27.5302H122.697L124.712 29.6033L124.628 29.5851L124.621 27.6104H124.971V30.3283H124.96ZM127.958 29.3665L126.982 27.6104H127.415L128.199 29.0641L128.089 29.0713L128.865 27.6104H129.295L128.312 29.3665V30.2445H127.958V29.3665Z" fill="#B8B9E6"/>
<path fill-rule="evenodd" clip-rule="evenodd" d="M3.09972 20.0009C4.53193 25.7644 9.06876 30.3014 14.8323 31.7338V27.6964C11.2145 26.4807 8.35264 23.6187 7.13704 20.0009H3.09972ZM16.8893 28.1931V32.1046C17.2538 32.146 17.622 32.1753 17.9934 32.192L19.9544 28.2701C19.5515 28.3102 19.1429 28.3307 18.7294 28.3307C18.104 28.3307 17.4895 28.2837 16.8893 28.1931ZM22.5242 27.7303C27.4189 26.1337 30.9558 21.532 30.9558 16.1043C30.9558 14.7258 30.7277 13.4006 30.3071 12.1644L32.5079 7.76294C33.9839 10.1958 34.8337 13.0508 34.8337 16.1043C34.8337 24.4603 28.4696 31.3299 20.324 32.1306L22.5242 27.7303ZM31.1581 5.86272L29.1975 9.78388C28.1714 8.08807 26.7449 6.66165 25.049 5.63569L28.9703 3.67505C29.7676 4.33267 30.5004 5.06552 31.1581 5.86272ZM27.07 2.32535C24.6373 0.84963 21.7825 0 18.7294 0C10.3737 0 3.50424 6.3636 2.70316 14.5088L7.10366 12.3085C8.70057 7.41427 13.302 3.87788 18.7294 3.87788C20.1075 3.87788 21.4323 4.10588 22.6683 4.52621L27.07 2.32535ZM6.56369 14.8784C6.52355 15.2816 6.503 15.6905 6.503 16.1043C6.503 16.7295 6.54993 17.3438 6.64046 17.9438H2.72903C2.68758 17.5792 2.65829 17.2109 2.6416 16.8394L6.56369 14.8784Z" fill="#DADAE5"/>
<path d="M0.432129 17.9435H16.8886L16.8886 34.4L33.3451 1.487L0.432129 17.9435Z" fill="#070F3F"/>
<path d="M0.432129 17.9435H16.8886L16.8886 34.4L33.3451 1.487L0.432129 17.9435Z" fill="url(#paint0_linear_145_1397)"/>
<defs>
<linearGradient id="paint0_linear_145_1397" x1="-3.00406" y1="37.8364" x2="31.7208" y2="2.60827" gradientUnits="userSpaceOnUse">
<stop stop-color="#45E595"/>
<stop offset="0.442561" stop-color="#57E3C9"/>
<stop offset="1" stop-color="#F2E01D"/>
</linearGradient>
</defs>
</svg>
