<svg width="20" height="20" viewBox="0 0 20 20" fill="none" xmlns="http://www.w3.org/2000/svg">
<path d="M3.125 8.75001C2.95924 8.75001 2.80027 8.68416 2.68306 8.56695C2.56585 8.44974 2.5 8.29077 2.5 8.12501V3.12625C2.5 2.96049 2.56585 2.80152 2.68306 2.68431C2.80027 2.5671 2.95924 2.50125 3.125 2.50125H8.125C8.29076 2.50125 8.44973 2.5671 8.56694 2.68431C8.68415 2.80152 8.75 2.96049 8.75 3.12625V8.12501C8.75 8.29077 8.68415 8.44974 8.56694 8.56695C8.44973 8.68416 8.29076 8.75001 8.125 8.75001H3.125ZM11.875 8.75001C11.7092 8.75001 11.5503 8.68416 11.4331 8.56695C11.3158 8.44974 11.25 8.29077 11.25 8.12501V3.12625C11.25 2.96049 11.3158 2.80152 11.4331 2.68431C11.5503 2.5671 11.7092 2.50125 11.875 2.50125H16.8737C17.0395 2.50125 17.1985 2.5671 17.3157 2.68431C17.4329 2.80152 17.4987 2.96049 17.4987 3.12625V8.12501C17.4987 8.29077 17.4329 8.44974 17.3157 8.56695C17.1985 8.68416 17.0395 8.75001 16.8737 8.75001H11.875ZM3.125 17.5C2.95924 17.5 2.80027 17.4342 2.68306 17.317C2.56585 17.1998 2.5 17.0408 2.5 16.875V11.875C2.5 11.7093 2.56585 11.5503 2.68306 11.4331C2.80027 11.3159 2.95924 11.25 3.125 11.25H8.125C8.29076 11.25 8.44973 11.3159 8.56694 11.4331C8.68415 11.5503 8.75 11.7093 8.75 11.875V16.875C8.75 17.0408 8.68415 17.1998 8.56694 17.317C8.44973 17.4342 8.29076 17.5 8.125 17.5H3.125ZM11.875 17.5C11.7092 17.5 11.5503 17.4342 11.4331 17.317C11.3158 17.1998 11.25 17.0408 11.25 16.875V11.875C11.25 11.7093 11.3158 11.5503 11.4331 11.4331C11.5503 11.3159 11.7092 11.25 11.875 11.25H16.8737C17.0395 11.25 17.1985 11.3159 17.3157 11.4331C17.4329 11.5503 17.4987 11.7093 17.4987 11.875V16.875C17.4987 17.0408 17.4329 17.1998 17.3157 17.317C17.1985 17.4342 17.0395 17.5 16.8737 17.5H11.875Z" fill="#273854" fill-opacity="0.54"/>
</svg>
