<svg width="16" height="16" viewBox="0 0 16 16" fill="none" xmlns="http://www.w3.org/2000/svg">
<g clip-path="url(#clip0_305_2175)">
<rect x="1" y="1" width="14" height="14" rx="4" fill="#C6CAD8"/>
<path fill-rule="evenodd" clip-rule="evenodd" d="M11.4692 10.9639C11.6122 10.8941 11.769 10.8575 11.9281 10.8567C12.14 10.8567 12.3471 10.9196 12.5233 11.0373C12.6995 11.155 12.8368 11.3223 12.9179 11.5181C12.999 11.7139 13.0202 11.9293 12.9789 12.1371C12.9376 12.345 12.8355 12.5359 12.6857 12.6857C12.5359 12.8355 12.345 12.9376 12.1371 12.9789C11.9293 13.0202 11.7139 12.999 11.5181 12.9179C11.3223 12.8368 11.155 12.6995 11.0373 12.5233C10.9196 12.3471 10.8567 12.14 10.8567 11.9281C10.8576 11.769 10.8944 11.6122 10.9642 11.4692L9.63751 10.1425H8.71399V9.42824H9.93357L11.4692 10.9639ZM11.7297 12.225C11.7884 12.2643 11.8575 12.2852 11.9281 12.2852C12.0228 12.2852 12.1137 12.2476 12.1806 12.1806C12.2476 12.1137 12.2852 12.0228 12.2852 11.9281C12.2852 11.8575 12.2643 11.7884 12.225 11.7297C12.1858 11.671 12.13 11.6252 12.0648 11.5982C11.9995 11.5711 11.9277 11.5641 11.8584 11.5778C11.7892 11.5916 11.7255 11.6256 11.6756 11.6756C11.6256 11.7255 11.5916 11.7892 11.5778 11.8584C11.5641 11.9277 11.5711 11.9995 11.5982 12.0648C11.6252 12.13 11.671 12.1858 11.7297 12.225ZM11.3119 7.12592C11.492 6.99803 11.7073 6.92903 11.9281 6.92837C12.1242 6.92802 12.3166 6.98157 12.4842 7.08316C12.6519 7.18476 12.7885 7.33049 12.8789 7.50443C12.9694 7.67838 13.0103 7.87384 12.9972 8.06947C12.9841 8.26509 12.9175 8.45335 12.8046 8.61367C12.6917 8.77399 12.537 8.9002 12.3572 8.97852C12.1775 9.05683 11.9797 9.08423 11.7854 9.05772C11.5912 9.03122 11.4079 8.95183 11.2557 8.82822C11.1035 8.70462 10.9882 8.54156 10.9224 8.35687H8.71399V7.64262H10.9224C10.9958 7.4343 11.1319 7.25381 11.3119 7.12592ZM11.7297 8.29668C11.7884 8.33592 11.8575 8.35687 11.9281 8.35687C12.0228 8.35687 12.1137 8.31924 12.1806 8.25227C12.2476 8.18529 12.2852 8.09446 12.2852 7.99974C12.2852 7.92911 12.2643 7.86006 12.225 7.80133C12.1858 7.74261 12.13 7.69683 12.0648 7.6698C11.9995 7.64277 11.9277 7.6357 11.8584 7.64948C11.7892 7.66326 11.7255 7.69727 11.6756 7.74722C11.6256 7.79716 11.5916 7.8608 11.5778 7.93007C11.5641 7.99935 11.5711 8.07115 11.5982 8.13641C11.6252 8.20166 11.671 8.25744 11.7297 8.29668ZM11.1708 3.31411C11.3717 3.11325 11.6441 3.00028 11.9281 3C12.0874 2.99985 12.2446 3.03522 12.3885 3.10352C12.5323 3.17182 12.6591 3.27134 12.7597 3.39484C12.8602 3.51833 12.9319 3.66269 12.9696 3.8174C13.0074 3.97211 13.0101 4.13329 12.9776 4.28919C12.9452 4.4451 12.8784 4.5918 12.7821 4.71863C12.6858 4.84547 12.5625 4.94923 12.421 5.02237C12.2796 5.09551 12.1236 5.13619 11.9644 5.14145C11.8053 5.1467 11.647 5.1164 11.501 5.05275L9.92964 6.57124H8.71399V5.857H9.64109L10.981 4.56171C10.9006 4.4107 10.858 4.24246 10.8567 4.07137C10.857 3.78731 10.97 3.51497 11.1708 3.31411ZM11.7297 4.36831C11.7884 4.40755 11.8575 4.4285 11.9281 4.4285C12.0228 4.4285 12.1137 4.39087 12.1806 4.3239C12.2476 4.25692 12.2852 4.16609 12.2852 4.07137C12.2852 4.00074 12.2643 3.93169 12.225 3.87297C12.1858 3.81424 12.13 3.76846 12.0648 3.74143C11.9995 3.7144 11.9277 3.70733 11.8584 3.72111C11.7892 3.73489 11.7255 3.7689 11.6756 3.81885C11.6256 3.86879 11.5916 3.93243 11.5778 4.0017C11.5641 4.07098 11.5711 4.14278 11.5982 4.20804C11.6252 4.2733 11.671 4.32907 11.7297 4.36831ZM9.42824 4.4285H8.71399C8.52462 4.42869 8.34306 4.504 8.20915 4.63791C8.07524 4.77181 7.99993 4.95337 7.99974 5.14275V10.8567C7.99993 11.0461 8.07524 11.2277 8.20915 11.3616C8.34306 11.4955 8.52462 11.5708 8.71399 11.571H9.42824V12.2852H8.71399C8.51047 12.2846 8.30948 12.2401 8.12463 12.155C7.93978 12.0698 7.7754 11.9459 7.64262 11.7917C7.50984 11.9459 7.34546 12.0698 7.16061 12.155C6.97576 12.2401 6.77476 12.2846 6.57124 12.2852H6.21412C5.36197 12.2843 4.545 11.9454 3.94244 11.3428C3.33988 10.7402 3.00095 9.92326 3 9.07112V6.92837C3.00095 6.07622 3.33988 5.25925 3.94244 4.65669C4.545 4.05413 5.36197 3.71519 6.21412 3.71425H6.57124C6.77476 3.71493 6.97576 3.75935 7.16061 3.8445C7.34546 3.92966 7.50984 4.05355 7.64262 4.20779C7.7754 4.05355 7.93978 3.92966 8.12463 3.8445C8.30948 3.75935 8.51047 3.71493 8.71399 3.71425H9.42824V4.4285ZM6.21412 11.571H6.57124C6.76062 11.5708 6.94218 11.4955 7.07609 11.3616C7.20999 11.2277 7.2853 11.0461 7.28549 10.8567V9.42824H6.57124C6.47653 9.42824 6.38569 9.46586 6.31872 9.53284C6.25175 9.59981 6.21412 9.69065 6.21412 9.78536V10.4996H5.49987V9.78536C5.50015 9.50131 5.61312 9.22896 5.81398 9.0281C6.01484 8.82724 6.28719 8.71427 6.57124 8.71399H7.28549V7.28549H6.57124V6.57124H7.28549V5.14275C7.2853 4.95337 7.20999 4.77181 7.07609 4.63791C6.94218 4.504 6.76062 4.42869 6.57124 4.4285H6.21412C5.61359 4.42957 5.03349 4.64663 4.57977 5.04004C4.12604 5.43344 3.82897 5.97693 3.74282 6.57124H4.78562C4.88034 6.57124 4.97117 6.53362 5.03815 6.46664C5.10512 6.39967 5.14275 6.30884 5.14275 6.21412V5.49987H5.857V6.21412C5.85671 6.49818 5.74374 6.77052 5.54288 6.97138C5.34202 7.17224 5.06968 7.28521 4.78562 7.28549H3.71425V8.71399H4.4285V9.42824H3.74282C3.82897 10.0226 4.12604 10.566 4.57977 10.9594C5.03349 11.3528 5.61359 11.5699 6.21412 11.571Z" fill="white"/>
</g>
<defs>
<clipPath id="clip0_305_2175">
<rect width="16" height="16" fill="white"/>
</clipPath>
</defs>
</svg>
