<svg width="16" height="16" viewBox="0 0 16 16" fill="none" xmlns="http://www.w3.org/2000/svg">
<path d="M4.22792 3.99678C4.3882 3.8365 4.5579 3.68565 4.73704 3.55366C4.85489 5.47227 5.6657 7.32018 7.05635 8.71082C8.44699 10.1015 10.2949 10.9123 12.2135 11.0301C12.0815 11.2093 11.9307 11.379 11.7704 11.5393C9.6915 13.6181 6.30681 13.6181 4.22792 11.5393C2.14903 9.46036 2.14903 6.07567 4.22792 3.99678ZM3.28511 3.05397C0.682958 5.65612 0.682958 9.87991 3.28511 12.4821C5.88726 15.0842 10.111 15.0842 12.7132 12.4821C13.5712 11.6241 14.1416 10.5823 14.4338 9.48864C12.2088 10.0826 9.74335 9.51221 7.99916 7.76801C6.25496 6.02382 5.68456 3.55837 6.27853 1.33334C5.14661 1.63327 4.11399 2.22683 3.28511 3.05397Z" fill="#DEE2E9"/>
</svg>
