<svg width="16" height="16" viewBox="0 0 16 16" fill="none" xmlns="http://www.w3.org/2000/svg">
<g clip-path="url(#clip0_305_2259)">
<rect x="1" y="1" width="14" height="14" rx="4" fill="#C6CAD8"/>
<path fill-rule="evenodd" clip-rule="evenodd" d="M8 12.9286L8.62 13.2857L9.84464 11.1429H11.5714C11.9503 11.1429 12.3137 10.9923 12.5816 10.7244C12.8495 10.4565 13 10.0932 13 9.71429V5.42857C13 5.24096 12.9631 5.05517 12.8914 4.88183C12.8196 4.70848 12.7144 4.55098 12.5817 4.41831C12.449 4.28565 12.2915 4.18042 12.1182 4.10865C11.9448 4.03687 11.759 3.99995 11.5714 4H4.42857C4.24096 3.99995 4.05517 4.03687 3.88183 4.10865C3.70848 4.18042 3.55098 4.28565 3.41831 4.41831C3.28565 4.55098 3.18042 4.70848 3.10865 4.88183C3.03687 5.05517 2.99995 5.24096 3 5.42857V9.71429C3 10.0932 3.15051 10.4565 3.41842 10.7244C3.68633 10.9923 4.04969 11.1429 4.42857 11.1429H7.64286V10.4286H4.42857C4.33473 10.4287 4.24178 10.4103 4.15506 10.3745C4.06833 10.3386 3.98954 10.286 3.92318 10.2197C3.85683 10.1533 3.80422 10.0745 3.76837 9.9878C3.73252 9.90107 3.71414 9.80813 3.71429 9.71429V5.42857C3.71414 5.33473 3.73252 5.24178 3.76837 5.15506C3.80422 5.06833 3.85683 4.98954 3.92318 4.92318C3.98954 4.85683 4.06833 4.80422 4.15506 4.76837C4.24178 4.73252 4.33473 4.71414 4.42857 4.71429H11.5714C11.6653 4.71414 11.7582 4.73252 11.8449 4.76837C11.9317 4.80422 12.0105 4.85683 12.0768 4.92318C12.1432 4.98954 12.1958 5.06833 12.2316 5.15506C12.2675 5.24178 12.2859 5.33473 12.2857 5.42857V9.71429C12.2859 9.80813 12.2675 9.90107 12.2316 9.9878C12.1958 10.0745 12.1432 10.1533 12.0768 10.2197C12.0105 10.286 11.9317 10.3386 11.8449 10.3745C11.7582 10.4103 11.6653 10.4287 11.5714 10.4286H9.42857L8 12.9286ZM9.63786 6.29071L10.9164 7.57143L9.63714 8.8525L10.1429 9.35714L11.9286 7.57143L10.1429 5.78571L9.63786 6.29071ZM5.85714 5.78571L6.42607 6.85714L7.64286 7.005L6.75 7.80964L6.92857 9L5.85714 8.33036L4.78571 9L4.96429 7.80964L4.07143 7.005L5.32143 6.85714L5.85714 5.78571ZM7.85214 6.29071L9.13071 7.57143L7.85142 8.8525L8.35714 9.35714L10.1429 7.57143L8.35714 5.78571L7.85214 6.29071Z" fill="white"/>
</g>
<defs>
<clipPath id="clip0_305_2259">
<rect width="16" height="16" fill="white"/>
</clipPath>
</defs>
</svg>
