<svg width="16" height="16" viewBox="0 0 16 16" fill="none" xmlns="http://www.w3.org/2000/svg">
<path d="M3.336 2.38404V3.22616H2.66667C1.95942 3.22616 1.28115 3.51352 0.781049 4.02503C0.280952 4.53654 0 5.2303 0 5.95368V10.7268C0 11.2694 0.210714 11.7897 0.585787 12.1733C0.960859 12.557 1.46957 12.7725 2 12.7725H3.33333V13.4544C3.33333 13.9969 3.54405 14.5172 3.91912 14.9008C4.29419 15.2845 4.8029 15.5 5.33333 15.5H10.6667C11.1971 15.5 11.7058 15.2845 12.0809 14.9008C12.456 14.5172 12.6667 13.9969 12.6667 13.4544V12.7725H14C14.5304 12.7725 15.0391 12.557 15.4142 12.1733C15.7893 11.7897 16 11.2694 16 10.7268V5.95368C16 5.2303 15.719 4.53654 15.219 4.02503C14.7189 3.51352 14.0406 3.22616 13.3333 3.22616H12.6667V2.37517C12.6667 2.12869 12.6192 1.88463 12.5269 1.65694C12.4346 1.42926 12.2993 1.22242 12.1288 1.04826C11.9582 0.8741 11.7558 0.736033 11.5331 0.641957C11.3103 0.547882 11.0716 0.499643 10.8307 0.500002L5.16667 0.508866C4.6809 0.509589 4.21527 0.70747 3.87203 1.05905C3.52879 1.41064 3.336 1.88718 3.336 2.38404ZM11.6667 2.37517V3.22616H4.336V2.38404C4.336 1.91354 4.708 1.53237 5.168 1.53169L10.832 1.52282C10.9415 1.52264 11.0501 1.54456 11.1513 1.58731C11.2526 1.63007 11.3446 1.69282 11.4221 1.77199C11.4996 1.85115 11.5611 1.94518 11.6031 2.04868C11.6451 2.15218 11.6667 2.26312 11.6667 2.37517ZM5.33333 9.02214H10.6667C10.9319 9.02214 11.1862 9.1299 11.3738 9.32172C11.5613 9.51353 11.6667 9.77369 11.6667 10.045V13.4544C11.6667 13.7256 11.5613 13.9858 11.3738 14.1776C11.1862 14.3694 10.9319 14.4772 10.6667 14.4772H5.33333C5.06812 14.4772 4.81376 14.3694 4.62623 14.1776C4.43869 13.9858 4.33333 13.7256 4.33333 13.4544V10.045C4.33333 9.77369 4.43869 9.51353 4.62623 9.32172C4.81376 9.1299 5.06812 9.02214 5.33333 9.02214Z" fill="white"/>
</svg>
