<svg width="17" height="16" viewBox="0 0 17 16" fill="none" xmlns="http://www.w3.org/2000/svg">
<path d="M4.377 7.14286C4.73255 5.42857 6.33255 4.14286 8.19922 4.14286C9.53255 4.14286 10.5992 4.74286 11.3103 5.68571L12.8214 3.97143C11.7548 2.77143 10.0659 2 8.19922 2C5.08811 2 2.51033 4.22857 2.06589 7.14286H0.199219L3.31033 10.5714L6.42144 7.14286H4.377ZM13.0881 5.42857L9.977 8.85714H12.0214C11.577 10.5714 10.0659 11.8571 8.19922 11.8571C6.86589 11.8571 5.79922 11.2571 5.08811 10.3143L3.577 11.9429C4.64366 13.2286 6.33255 14 8.19922 14C11.3103 14 13.8881 11.7714 14.3326 8.85714H16.1992L13.0881 5.42857Z" fill="white"/>
</svg>
