<svg width="16" height="16" viewBox="0 0 16 16" fill="none" xmlns="http://www.w3.org/2000/svg">
<path d="M14.9268 11.8195L11.2865 3.48619C11.1571 3.18984 10.875 3 10.5646 3H8.02324L8.08704 3.60312C8.10006 3.72604 8.00345 3.83333 7.87975 3.83333H7.12038C6.99668 3.83333 6.90007 3.72604 6.91309 3.60312L6.97689 3H4.4355C4.12483 3 3.8428 3.18984 3.71337 3.48619L0.0730347 11.8195C-0.167849 12.3713 0.216523 12.9999 0.795425 12.9999H5.92143L6.18992 10.4562C6.21231 10.2442 6.39096 10.0833 6.60424 10.0833H8.39589C8.60917 10.0833 8.78782 10.2442 8.81021 10.4562L9.0787 12.9999H14.2047C14.7836 12.9999 15.168 12.3713 14.9268 11.8195ZM6.78132 4.85311C6.78673 4.80191 6.8109 4.75453 6.84918 4.7201C6.88745 4.68567 6.93712 4.66663 6.98861 4.66665H8.01178C8.11829 4.66665 8.20787 4.74712 8.21907 4.85311L8.33886 5.988C8.35839 6.17263 8.2136 6.33331 8.02819 6.33331H6.97246C6.78679 6.33331 6.64226 6.17263 6.66179 5.988L6.78132 4.85311ZM8.21985 9.24995H6.78002C6.53262 9.24995 6.33966 9.03563 6.3657 8.78954L6.49773 7.53955C6.52012 7.32757 6.69877 7.16664 6.91205 7.16664H8.08782C8.3011 7.16664 8.47974 7.32757 8.50214 7.53955L8.63417 8.78954C8.66021 9.03563 8.46725 9.24995 8.21985 9.24995Z" fill="#C6CAD8"/>
</svg>
