<svg width="16" height="16" viewBox="0 0 16 16" fill="none" xmlns="http://www.w3.org/2000/svg">
<g clip-path="url(#clip0_305_2185)">
<rect x="1" y="1" width="14" height="14" rx="4" fill="#606EEA"/>
<path d="M5.1 6.20458C3.9459 6.20458 3 7.14893 3 8.30158C3 8.74822 3.1424 9.16331 3.3835 9.5045L4.8438 12.0325C5.0483 12.3001 5.1843 12.2493 5.3544 12.0185L6.965 9.27357C6.9975 9.21449 7.023 9.1518 7.0453 9.0877C7.14751 8.83826 7.20006 8.57121 7.2 8.30158C7.2 7.14893 6.2544 6.20458 5.1 6.20458ZM5.1 7.18719C5.7216 7.18719 6.216 7.68099 6.216 8.30168C6.216 8.92237 5.7216 9.41597 5.1 9.41597C4.4785 9.41597 3.984 8.92227 3.984 8.30168C3.984 7.68099 4.4785 7.18719 5.1 7.18719ZM11.775 3C11.1018 3 10.55 3.55089 10.55 4.22335C10.55 4.48382 10.633 4.72597 10.7737 4.92495L11.6256 6.39966C11.7449 6.55568 11.8242 6.52604 11.9234 6.39145L12.8629 4.79016C12.8819 4.75581 12.8968 4.71926 12.9097 4.6818C12.9693 4.53634 13 4.3806 13 4.22335C13 3.55079 12.4484 3 11.775 3ZM11.775 3.57322C12.1376 3.57322 12.426 3.86123 12.426 4.22335C12.426 4.58537 12.1376 4.87328 11.775 4.87328C11.4125 4.87328 11.124 4.58537 11.124 4.22335C11.124 3.86123 11.4125 3.57322 11.775 3.57322Z" fill="white"/>
<path fill-rule="evenodd" clip-rule="evenodd" d="M11.8209 6.74656C11.5962 6.75157 11.3709 6.76108 11.1452 6.7778L11.18 7.3318C11.3969 7.31607 11.614 7.30595 11.8313 7.30145L11.8209 6.74656ZM10.6234 6.82868C10.2764 6.87184 9.92645 6.93333 9.58045 7.03217L9.71075 7.56904C10.0251 7.47931 10.3509 7.42132 10.6818 7.38017L10.6234 6.82868ZM9.06235 7.21803C8.95868 7.26386 8.8583 7.31683 8.76195 7.37656L8.76155 7.37706L8.76095 7.37726C8.62345 7.46399 8.47855 7.57404 8.36025 7.73397C8.27455 7.84984 8.20445 7.99635 8.18805 8.16959L8.69755 8.22617C8.70135 8.18552 8.72215 8.13184 8.75955 8.08137H8.75975V8.08117C8.82005 7.99945 8.91045 7.92524 9.01795 7.85735L9.01835 7.85715C9.09497 7.80979 9.17476 7.76776 9.25715 7.73137L9.06235 7.21803ZM8.80005 8.47333L8.46975 8.89743C8.54805 8.96914 8.63015 9.02422 8.70945 9.07028L8.71045 9.07078L8.71145 9.07138C8.97465 9.2213 9.24605 9.30592 9.49765 9.38623L9.64225 8.85367C9.39075 8.77336 9.15365 8.69585 8.95045 8.58028C8.89225 8.54643 8.84125 8.51108 8.80005 8.47333ZM10.1335 9.00349L9.99235 9.53695L10.0591 9.55778L10.1411 9.58402C10.4125 9.67244 10.6725 9.76688 10.9049 9.89756L11.1407 9.40486C10.8597 9.24673 10.568 9.14339 10.2869 9.05186L10.2861 9.05166L10.2019 9.02472L10.1335 9.00349ZM11.6202 9.77459L11.2579 10.1672C11.3435 10.26 11.4076 10.3716 11.4388 10.487L11.439 10.4876L11.4392 10.4885C11.4764 10.6232 11.4765 10.7816 11.4474 10.9417L11.9498 11.049C11.9908 10.8231 11.9974 10.575 11.93 10.3302C11.8713 10.1137 11.7593 9.92561 11.6202 9.77459ZM11.272 11.2761C11.2167 11.3347 11.1555 11.3874 11.0894 11.4336H11.0892C10.9092 11.5603 10.7004 11.6559 10.4786 11.738L10.644 12.2631C10.8866 12.1733 11.1357 12.0632 11.3685 11.8991L11.3691 11.8986L11.3694 11.8984C11.4651 11.8314 11.5535 11.7546 11.6333 11.6694L11.272 11.2761ZM10.008 11.8859C9.68675 11.9724 9.35835 12.0383 9.02595 12.0942L9.10435 12.6429C9.44645 12.5853 9.78995 12.5165 10.1313 12.4246L10.008 11.8859ZM8.52585 12.1699C8.19125 12.2157 7.85485 12.253 7.51745 12.2849L7.56165 12.8379C7.90425 12.8056 8.24745 12.7677 8.59015 12.7207L8.52585 12.1699ZM7.01035 12.3284C6.67225 12.3553 6.33335 12.3771 5.99415 12.3955L6.01975 12.9499C6.36225 12.9314 6.70505 12.9093 7.04775 12.882L7.01035 12.3284ZM5.48445 12.4206C5.28115 12.4301 5.07735 12.4379 4.87305 12.4451L4.88985 13C5.09542 12.9929 5.30096 12.9847 5.50645 12.9754L5.48445 12.4206Z" fill="white"/>
</g>
<defs>
<clipPath id="clip0_305_2185">
<rect width="16" height="16" fill="white"/>
</clipPath>
</defs>
</svg>
