<svg width="16" height="16" viewBox="0 0 16 16" fill="none" xmlns="http://www.w3.org/2000/svg">
<g clip-path="url(#clip0_305_2289)">
<path fill-rule="evenodd" clip-rule="evenodd" d="M14.9195 1.56431C14.9194 1.56338 14.9194 1.56243 14.9195 1.56149C14.8931 1.44566 14.8348 1.33951 14.7513 1.25502C14.6678 1.17054 14.5623 1.11109 14.4467 1.08337C13.5155 0.856179 12.0505 1.09837 10.427 1.74837C8.79077 2.40462 7.25763 3.37338 6.22138 4.41151C5.88923 4.74189 5.58066 5.09515 5.29794 5.4687C4.60012 5.43745 3.98543 5.53683 3.46761 5.76277C1.66323 6.55683 1.14792 8.58903 1.01073 9.42341C0.990876 9.54196 0.998649 9.6635 1.03344 9.77856C1.06823 9.89362 1.12911 9.9991 1.21132 10.0868C1.29354 10.1745 1.39488 10.242 1.50747 10.2841C1.62005 10.3263 1.74083 10.3418 1.86042 10.3297H1.86448L3.87449 10.1103C3.87591 10.1249 3.87743 10.1387 3.87889 10.1519L3.87889 10.1519L3.88199 10.1809C3.90781 10.4258 4.01704 10.6544 4.19137 10.8284L5.17231 11.81C5.34602 11.9846 5.57458 12.0939 5.8195 12.1197L5.88669 12.1269L5.66794 14.1344V14.1384C5.65676 14.2465 5.66826 14.3558 5.70172 14.4592C5.73517 14.5627 5.78983 14.658 5.86222 14.739C5.9346 14.8201 6.02311 14.8852 6.12208 14.9302C6.22105 14.9751 6.32831 14.9989 6.437 15C6.48045 15 6.52383 14.9965 6.56669 14.9894C7.40576 14.8544 9.43702 14.3453 10.2289 12.5312C10.453 12.0169 10.552 11.4047 10.5242 10.7081C10.8994 10.426 11.254 10.1174 11.5852 9.78466C12.6298 8.74528 13.6017 7.22465 14.2511 5.61214C14.8977 4.00713 15.1411 2.53119 14.9195 1.56431ZM11.5739 7.02933C11.3171 7.28637 10.9899 7.46148 10.6336 7.5325C10.2773 7.60352 9.90789 7.56726 9.57219 7.42831C9.23649 7.28936 8.94954 7.05397 8.74765 6.7519C8.54576 6.44984 8.438 6.09468 8.438 5.73136C8.438 5.36804 8.54576 5.01288 8.74765 4.71082C8.94954 4.40875 9.23649 4.17335 9.57219 4.0344C9.90789 3.89546 10.2773 3.8592 10.6336 3.93022C10.9899 4.00124 11.3171 4.17634 11.5739 4.43338C11.746 4.6029 11.8827 4.80496 11.976 5.02779C12.0693 5.25063 12.1173 5.48979 12.1173 5.73136C12.1173 5.97293 12.0693 6.21209 11.976 6.43493C11.8827 6.65776 11.746 6.85981 11.5739 7.02933ZM10.2761 4.89963C10.0831 4.89974 9.89618 4.96675 9.74709 5.08924C9.59799 5.21173 9.49598 5.38213 9.45843 5.5714C9.42088 5.76067 9.45012 5.9571 9.54116 6.12723C9.63221 6.29737 9.77942 6.43067 9.95773 6.50443C10.136 6.57818 10.3344 6.58784 10.519 6.53174C10.7037 6.47565 10.8631 6.35727 10.9703 6.19679C11.0774 6.0363 11.1256 5.84363 11.1066 5.65161C11.0876 5.45959 11.0026 5.28009 10.8661 5.1437C10.7887 5.06614 10.6967 5.00464 10.5955 4.96276C10.4942 4.92087 10.3857 4.89942 10.2761 4.89963ZM4.71607 12.1597C4.81666 12.0909 4.9389 12.0612 5.05982 12.0762C5.19138 12.0924 5.31112 12.1601 5.39275 12.2646C5.47438 12.369 5.51121 12.5015 5.49514 12.6331C5.44497 13.056 5.25348 13.4495 4.9517 13.75C4.83732 13.8644 4.4892 14.2125 3.162 14.4C2.78063 14.453 2.39679 14.4864 2.012 14.5H1.9995C1.93274 14.5 1.86666 14.4867 1.80515 14.4607C1.74364 14.4348 1.68794 14.3968 1.64133 14.349C1.59473 14.3013 1.55817 14.2446 1.53381 14.1825C1.50945 14.1203 1.49778 14.0539 1.4995 13.9872C1.51325 13.6027 1.54684 13.2191 1.60012 12.8381C1.7872 11.5123 2.13474 11.1638 2.24931 11.0489L2.2495 11.0487C2.54982 10.7483 2.94153 10.5564 3.36294 10.5031C3.45841 10.4914 3.55524 10.5074 3.64181 10.5493C3.72839 10.5913 3.80104 10.6573 3.85104 10.7394C3.90105 10.8216 3.92629 10.9164 3.92375 11.0126C3.9212 11.1088 3.89098 11.2021 3.83669 11.2815L3.457 11.9378C3.21357 12.3615 3.70357 12.829 4.11326 12.5628C4.31576 12.4312 4.51638 12.2962 4.71607 12.1597Z" fill="#C6CAD8"/>
</g>
<defs>
<clipPath id="clip0_305_2289">
<rect width="16" height="16" fill="white"/>
</clipPath>
</defs>
</svg>
