<svg width="20" height="21" viewBox="0 0 20 21" fill="none" xmlns="http://www.w3.org/2000/svg">
<g clip-path="url(#clip0_1482_16964)">
<path fill-rule="evenodd" clip-rule="evenodd" d="M0.105434 10.184C0.126322 10.117 2.40807 3.5 10.0003 3.5C17.5925 3.5 19.8743 10.117 19.8961 10.184L20.0006 10.5L19.8951 10.816C19.8743 10.883 17.5925 17.5 10.0003 17.5C2.40807 17.5 0.126322 10.883 0.104439 10.816L0 10.5L0.105434 10.184ZM6.02166 10.5C6.02166 12.706 7.80607 14.5 10.0003 14.5C12.1945 14.5 13.9789 12.706 13.9789 10.5C13.9789 8.294 12.1945 6.5 10.0003 6.5C7.80607 6.5 6.02166 8.294 6.02166 10.5ZM8.01166 10.5C8.01166 9.416 8.92276 8.5 10.001 8.5C11.0792 8.5 11.9903 9.416 11.9903 10.5C11.9903 11.584 11.0792 12.5 10.001 12.5C8.92276 12.5 8.01166 11.584 8.01166 10.5Z" fill="#C7C7D2"/>
</g>
<defs>
<clipPath id="clip0_1482_16964">
<rect width="20" height="20" fill="white" transform="translate(0 0.5)"/>
</clipPath>
</defs>
</svg>
