<svg width="19" height="20" viewBox="0 0 19 20" fill="none" xmlns="http://www.w3.org/2000/svg">
<path d="M3.45255 0V3.13365H5.14195V0H3.45255ZM13.1914 0V3.13365H14.8783V0H13.1914ZM0 1.50613V5.89323H18.3333V1.50613H16.0862V4.30867H11.9835V1.50613H6.34735V4.30867H2.24717V1.50613H0ZM0 7.04513V20H18.3333V7.04512L0 7.04513ZM7.20178 10.0384C8.13499 10.0474 9.01815 10.4841 9.36927 11.2968C9.53439 11.7823 9.62232 12.2998 9.41673 12.7517C9.15937 13.2731 8.63762 13.5446 8.12574 13.7195C9.08641 13.9637 9.71866 14.5522 9.72443 15.508C9.70894 16.1637 9.39394 16.7444 8.9183 17.124C8.41256 17.5135 7.80105 17.731 7.20178 17.735C5.51179 17.735 4.66641 16.9928 4.66641 15.508H6.15831C6.19001 16.1331 6.49343 16.6086 7.11787 16.617C7.91168 16.5643 8.226 16.0562 8.23253 15.4056C8.23217 15.0127 8.08491 14.61 7.73412 14.4585C7.28157 14.2754 6.77638 14.2971 6.33546 14.2967V13.1663C7.05623 13.1809 8.04633 13.057 8.05369 12.22C8.02566 11.6043 7.76697 11.165 7.15346 11.1573C6.49995 11.1957 6.14132 11.5576 6.13457 12.1291H4.66641C4.69829 10.6879 5.91366 10.0448 7.20178 10.0384ZM12.3514 10.178H13.6661V17.5979H12.2437V11.6312C11.6988 12.0851 11.0956 12.4083 10.4322 12.6006V11.3315C11.2062 11.0392 11.8459 10.6549 12.3514 10.178Z" fill="#070F3F"/>
</svg>
