<svg width="20" height="20" viewBox="0 0 20 20" fill="none" xmlns="http://www.w3.org/2000/svg">
<g clip-path="url(#clip0_612_1937)">
<path d="M8.13937 16.4C7.93067 16.4 7.79154 16.6 7.79154 16.9333C7.79154 17.2 7.93067 17.4666 8.20893 17.4666C8.41763 17.4666 8.55676 17.2666 8.55676 16.9333C8.55676 16.6666 8.41763 16.4 8.13937 16.4ZM2.57415 16.4C2.57415 16.4666 2.50459 16.6 2.50459 16.6666L2.43502 17H2.78285L2.71328 16.6666C2.64372 16.6 2.64372 16.5333 2.57415 16.4ZM1.25241 16.4H1.11328V16.8666H1.25241C1.46111 16.8666 1.53067 16.8 1.53067 16.6C1.53067 16.4 1.46111 16.4 1.25241 16.4ZM6.60893 16.4H6.4698V16.8666H6.60893C6.81763 16.8666 6.8872 16.8 6.8872 16.6C6.8872 16.4 6.74806 16.4 6.60893 16.4ZM9.6698 16.4H9.53067V16.8H9.6698C9.8785 16.8 9.94806 16.7333 9.94806 16.6C9.94806 16.4666 9.80894 16.4 9.6698 16.4ZM20.1046 4.86664L9.94806 0.0666366C9.89007 0.0316876 9.82497 0.00899452 9.75709 7.19582e-05C9.68922 -0.00885061 9.62014 -0.00379746 9.55447 0.0148942C9.4888 0.0335858 9.42804 0.0654859 9.37625 0.108466C9.32447 0.151446 9.28284 0.204516 9.25415 0.264137L9.25328 0.266637V0.333303L9.04459 0.666637L7.86198 2.99997H12.1194C12.7263 2.99997 13.2185 3.47164 13.2185 4.0533V4.06747V4.06664V19.4C13.2881 19.3333 13.3576 19.2666 13.3576 19.2L20.3142 5.5333C20.3485 5.47719 20.3704 5.41492 20.3785 5.35036C20.3867 5.28579 20.3809 5.22031 20.3616 5.15796C20.3423 5.09562 20.3098 5.03774 20.2662 4.98791C20.2226 4.93809 20.1688 4.89738 20.1081 4.8683L20.1055 4.86747L20.1046 4.86664ZM8.00024 12.2C7.53307 12.0466 7.04566 11.9571 6.55241 11.9341L6.53937 11.9333V13.8666C6.89511 13.7132 7.21054 13.4855 7.46255 13.2002C7.71457 12.9148 7.8968 12.579 7.99589 12.2175L8.00024 12.2ZM8.20893 8.06664C7.69945 8.24518 7.16097 8.33575 6.6185 8.33414L6.53589 8.3333H6.54024V9.39997H8.4185C8.4125 8.93635 8.33904 8.4758 8.20024 8.03164L8.2098 8.06664H8.20893ZM6.53937 5.9333V7.7333L6.60459 7.73414C7.10806 7.73414 7.58807 7.6358 8.02372 7.4583L8.00024 7.46664C7.9097 7.11736 7.73034 6.79499 7.47817 6.52831C7.22599 6.26163 6.90884 6.05893 6.55502 5.9383L6.53937 5.9333Z" fill="#070F3F"/>
<path d="M8.90402 11.8C9.15619 11.9325 9.35097 12.1408 9.45793 12.3925L9.46054 12.4C10.0186 11.7891 10.3594 11.0238 10.4336 10.215L10.4345 10.2H9.11271C9.14772 10.7522 9.07368 11.3058 8.89445 11.8317L8.90402 11.8008V11.8ZM3.40836 12.9333C3.62749 13.12 3.87967 13.2767 4.15532 13.3933L4.17358 13.4C3.98141 13.15 3.81706 12.8642 3.69532 12.5583L3.68663 12.5333C3.5572 12.6368 3.46128 12.7736 3.4101 12.9275L3.40836 12.9333ZM8.97358 6.6C8.71271 6.40417 8.41793 6.20667 8.11184 6.02417L8.06923 6C8.31706 6.2875 8.5275 6.6175 8.68489 6.97417L8.69532 7C8.83445 7 8.97358 6.8 8.97358 6.6ZM8.20836 13.4C8.47706 13.2775 8.70663 13.1208 8.90402 12.9333C8.89249 12.8513 8.86169 12.7728 8.81394 12.7038C8.7662 12.6348 8.70275 12.5771 8.62837 12.535L8.62576 12.5333C8.55445 12.8658 8.40836 13.1575 8.20489 13.4042L8.20836 13.4ZM9.18228 9.46667H10.504C10.4128 8.64313 10.0976 7.85696 9.5901 7.18667L9.59967 7.2C9.46744 7.45849 9.2502 7.66814 8.98141 7.79667L8.97358 7.8C9.04315 8.33333 9.11271 8.86667 9.18228 9.46667ZM8.41706 10.2H6.5388V11.2C7.12294 11.2141 7.69942 11.3308 8.23967 11.5442L8.20836 11.5333C8.34179 11.1014 8.41203 10.6538 8.41706 10.2033V10.2ZM4.10402 6.2C3.84816 6.29335 3.61171 6.42965 3.40576 6.6025L3.40836 6.6C3.41351 6.67645 3.43455 6.75114 3.47024 6.81969C3.50593 6.88823 3.55555 6.94925 3.61619 6.99917L3.61706 7C3.72836 6.69083 3.89445 6.42417 4.10576 6.1975L4.10402 6.2ZM3.40836 7.73333C3.19224 7.59162 3.00509 7.41311 2.85619 7.20667L2.85184 7.2C2.29043 7.86076 1.95117 8.66906 1.8788 9.51833L1.87793 9.53333H3.1301C3.14402 8.9067 3.24192 8.28438 3.42141 7.68167L3.40836 7.73333ZM5.77358 13.7333V11.9333C5.28255 11.9849 4.79738 12.0789 4.32402 12.2142L4.38228 12.2C4.46813 12.5413 4.63774 12.858 4.877 13.1238C5.11626 13.3896 5.41827 13.5969 5.75793 13.7283L5.77358 13.7333Z" fill="#070F3F"/>
<path d="M12.3828 4.26665V4.24665C12.3828 4.11873 12.3331 3.9954 12.2434 3.90066C12.1537 3.80592 12.0304 3.74657 11.8976 3.73415H0.555826C0.541913 3.73248 0.525392 3.73248 0.50887 3.73248C0.437568 3.73265 0.367086 3.74706 0.301919 3.77478C0.236752 3.80251 0.178332 3.84295 0.130386 3.89353C0.0824396 3.9441 0.0460199 4.0037 0.0234505 4.06852C0.000881131 4.13334 -0.00734242 4.20195 -0.000695453 4.26998V4.26832V19.4758C-0.000695453 19.7667 0.245392 20.0017 0.548 20.0017H11.8254C11.9694 19.992 12.1049 19.9329 12.2071 19.8353C12.3093 19.7376 12.3714 19.6079 12.3819 19.47V19.4683L12.3828 4.26665ZM1.18278 9.33332C1.28773 8.20359 1.80257 7.14485 2.63777 6.34126C3.47296 5.53766 4.57567 5.04006 5.75409 4.93498L5.77409 4.93332V4.86665H6.5393V4.93332C7.19243 4.98256 7.82904 5.15461 8.41279 5.43963C8.99653 5.72466 9.51598 6.11707 9.94147 6.59448C10.367 7.07189 10.6902 7.62494 10.8926 8.22206C11.0951 8.81917 11.1729 9.44865 11.1215 10.0746C11.0701 10.7005 10.8906 11.3106 10.5932 11.87C10.2957 12.4294 9.88625 12.9272 9.38809 13.335C8.88992 13.7427 8.31283 14.0525 7.68975 14.2465C7.06668 14.4405 6.40982 14.5151 5.7567 14.4658L5.77409 14.4667C3.18539 14.2475 1.17148 12.18 1.17148 9.66082C1.17148 9.54582 1.17583 9.43082 1.18365 9.31832L1.18278 9.33332ZM1.25235 17.1333H1.11322V17.6667H0.765392V16.1333H1.25235C1.42732 16.1147 1.60288 16.1629 1.74104 16.2675L1.7393 16.2667C1.87844 16.3333 1.87844 16.4667 1.87844 16.6C1.87639 16.7237 1.82686 16.8424 1.7393 16.9333C1.68011 16.9964 1.6077 17.0469 1.52678 17.0813C1.44587 17.1158 1.35828 17.1335 1.26974 17.1333H1.25148H1.25235ZM2.92191 17.6667L2.78278 17.2667H2.36539L2.22626 17.6667H1.87844L2.36539 16.1333H2.85235L3.3393 17.6667H2.92191ZM3.89583 17.6667C3.75116 17.6774 3.60596 17.6536 3.47322 17.5975L3.47844 17.6L3.548 17.3333C3.6804 17.3885 3.82499 17.4114 3.96887 17.4H3.96539C4.10452 17.4 4.17409 17.3333 4.17409 17.2667C4.17409 17.2 4.10452 17.1333 3.89583 17.0667C3.68713 16.9333 3.47844 16.8 3.47844 16.6C3.47844 16.3333 3.68713 16.1333 4.10452 16.1333C4.24919 16.1226 4.39439 16.1463 4.52713 16.2025L4.52191 16.2L4.45235 16.4667C4.34747 16.4053 4.22328 16.3817 4.10191 16.4H4.10452C3.96539 16.4 3.89583 16.4667 3.89583 16.5333C3.89583 16.6 3.96539 16.6667 4.17409 16.7333C4.40887 16.775 4.58539 16.9667 4.59148 17.1992V17.2C4.59148 17.4667 4.38278 17.6667 3.89583 17.6667ZM5.21757 17.6667C5.0729 17.6774 4.9277 17.6536 4.79496 17.5975L4.80017 17.6V17.3333C4.93257 17.3885 5.07716 17.4114 5.22104 17.4H5.21757C5.3567 17.4 5.49583 17.3333 5.49583 17.2667C5.49583 17.2 5.42626 17.1333 5.21757 17.0667C5.10324 17.0567 4.99694 17.0061 4.91955 16.9248C4.84215 16.8436 4.79927 16.7375 4.7993 16.6275L4.80017 16.5983V16.6C4.80017 16.3333 5.00887 16.1333 5.42626 16.1333C5.57093 16.1226 5.71613 16.1463 5.84887 16.2025L5.84365 16.2L5.77409 16.4667C5.66921 16.4053 5.54502 16.3817 5.42365 16.4H5.42626C5.28713 16.4 5.21757 16.4667 5.21757 16.5333C5.21757 16.6 5.28713 16.6667 5.49583 16.7333C5.73061 16.775 5.90713 16.9667 5.91322 17.1992V17.2C5.88399 17.3502 5.79427 17.4833 5.66345 17.5706C5.53264 17.658 5.37122 17.6924 5.21409 17.6667L5.21757 17.6675V17.6667ZM7.09583 17C7.03673 17.0658 6.95869 17.1135 6.87145 17.1371C6.78422 17.1607 6.69168 17.1591 6.60539 17.1325L6.60887 17.1333H6.46974V17.6667H6.12191V16.1333H6.60887C6.78384 16.1147 6.95941 16.1629 7.09757 16.2675L7.09583 16.2667C7.23496 16.3333 7.23496 16.4667 7.23496 16.6C7.2193 16.75 7.16974 16.8858 7.09322 17.0042L7.09583 17ZM8.90452 16.8667C8.91867 16.9636 8.91153 17.0624 8.88355 17.1566C8.85558 17.2508 8.80738 17.3383 8.74206 17.4136C8.67674 17.4889 8.59573 17.5503 8.50421 17.5939C8.4127 17.6375 8.31269 17.6623 8.21061 17.6667H8.06974C7.86735 17.6649 7.67377 17.5871 7.53066 17.4499C7.38754 17.3128 7.30634 17.1273 7.30452 16.9333V16.8667C7.28909 16.6733 7.35266 16.4818 7.48181 16.3325C7.61096 16.1833 7.79558 16.0879 7.9967 16.0667H8.07322C8.26366 16.0667 8.44725 16.1347 8.58812 16.2576C8.72898 16.3804 8.81699 16.5491 8.83496 16.7308V16.7342L8.90452 16.8667ZM9.948 17.6667C9.87844 17.5333 9.87844 17.4667 9.80887 17.3333C9.7393 17.1333 9.66974 17.0667 9.53061 17.0667H9.39148V17.6667H9.04365V16.1333H9.53061C9.61722 16.119 9.70607 16.1237 9.79054 16.1469C9.87501 16.1701 9.95292 16.2114 10.0184 16.2675L10.0176 16.2667C10.1049 16.3574 10.1544 16.4757 10.1567 16.5992V16.6C10.1544 16.6846 10.1273 16.7669 10.0786 16.8374C10.0298 16.908 9.9614 16.964 9.88104 16.9992L9.87844 17C10.0176 17.0667 10.0176 17.1333 10.0871 17.2667C10.1028 17.4167 10.1523 17.5525 10.2289 17.6708L10.2263 17.6667H9.948ZM11.6871 16.4667H11.2697V17.6667H10.9219V16.4667H10.435V16.2H11.6176V16.4667H11.6871Z" fill="#070F3F"/>
<path d="M3.40911 11.8C3.27819 11.2677 3.18666 10.7272 3.1352 10.1825L3.13085 10.1333H1.94824C2.04031 10.9356 2.35566 11.6995 2.86129 12.345L2.85259 12.3333C3.00389 12.1225 3.18911 11.945 3.40216 11.8042L3.40911 11.8ZM5.77433 10.2H3.89607C3.89694 10.6758 3.97346 11.135 4.11433 11.5658L4.10476 11.5333C4.6362 11.3592 5.1878 11.2478 5.74737 11.2017L5.77433 11.2V10.2ZM5.77433 5.79999C5.00911 5.93332 4.52216 6.73332 4.31346 7.33332C4.74042 7.49665 5.2352 7.61415 5.75085 7.66499L5.77433 7.66665V5.79999ZM5.77433 9.46665V8.39999C5.19019 8.38584 4.61371 8.26919 4.07346 8.05582L4.10476 8.06665C3.96579 8.52109 3.89551 8.99227 3.89607 9.46582V9.46665H5.77433Z" fill="#070F3F"/>
</g>
<defs>
<clipPath id="clip0_612_1937">
<rect width="20" height="20" fill="white"/>
</clipPath>
</defs>
</svg>
