<svg width="16" height="20" viewBox="0 0 16 20" fill="none" xmlns="http://www.w3.org/2000/svg">
<path d="M13.458 2.5H11.3533C10.8369 1.04688 9.46191 0 7.83301 0C6.2041 0 4.8291 1.04688 4.31348 2.5H2.20801C1.17285 2.5 0.333008 3.33906 0.333008 4.375V18.125C0.333008 19.1602 1.17285 20 2.20801 20H13.458C14.4932 20 15.333 19.1609 15.333 18.125V4.375C15.333 3.33906 14.4932 2.5 13.458 2.5ZM4.08301 15.3125C3.56543 15.3125 3.14551 14.8926 3.14551 14.375C3.14551 13.8574 3.56543 13.4375 4.08301 13.4375C4.60059 13.4375 5.02051 13.8574 5.02051 14.375C5.02051 14.8926 4.60254 15.3125 4.08301 15.3125ZM4.08301 11.5625C3.56543 11.5625 3.14551 11.1426 3.14551 10.625C3.14551 10.1074 3.56543 9.6875 4.08301 9.6875C4.60059 9.6875 5.02051 10.1094 5.02051 10.625C5.02051 11.1406 4.60254 11.5625 4.08301 11.5625ZM7.83301 2.5C8.52324 2.5 9.08301 3.05977 9.08301 3.75C9.08301 4.44023 8.52324 5 7.83301 5C7.14277 5 6.58301 4.44141 6.58301 3.75C6.58301 3.05977 7.1416 2.5 7.83301 2.5ZM12.208 15H7.20801C6.86426 15 6.58301 14.7188 6.58301 14.375C6.58301 14.0312 6.86426 13.75 7.20801 13.75H12.208C12.5518 13.75 12.833 14.0312 12.833 14.375C12.833 14.7188 12.5518 15 12.208 15ZM12.208 11.25H7.20801C6.86426 11.25 6.58301 10.9688 6.58301 10.625C6.58301 10.2812 6.86426 10 7.20801 10H12.208C12.5518 10 12.833 10.2812 12.833 10.625C12.833 10.9688 12.5518 11.25 12.208 11.25Z" fill="#070F3F"/>
</svg>
