<svg width="21" height="20" viewBox="0 0 21 20" fill="none" xmlns="http://www.w3.org/2000/svg">
<path fill-rule="evenodd" clip-rule="evenodd" d="M15.2252 6.59792C15.1753 6.59524 15.124 6.59248 15.07 6.59248C11.0068 6.59248 7.70151 9.88275 7.70151 13.9275V13.9799L1.79618 16.4528C1.10144 16.7462 0.333008 16.2432 0.333008 15.4888V11.6012C0.333008 11.1192 0.659327 10.7001 1.13302 10.5848L8.75415 8.68819L1.13302 6.79157C0.659327 6.6763 0.333008 6.25716 0.333008 5.77515V1.88759C0.333008 1.13314 1.10144 0.630163 1.79618 0.913085L15.3647 6.60296C15.3186 6.60296 15.2725 6.60047 15.2252 6.59792ZM9.80658 13.9275C9.80658 11.0354 12.1645 8.6882 15.0698 8.6882C17.9751 8.6882 20.333 11.0354 20.333 13.9275C20.333 16.8196 17.9751 19.1668 15.0698 19.1668C12.1645 19.1668 9.80658 16.8196 9.80658 13.9275ZM14.6908 14.2942L16.4277 16.0232C16.6382 16.2328 16.9646 16.2328 17.1646 16.0232C17.3751 15.8136 17.3751 15.4888 17.1646 15.2792L15.5856 13.7074V11.3078C15.5856 11.0144 15.354 10.7839 15.0593 10.7839C14.7645 10.7839 14.5329 11.0144 14.5329 11.3078V13.9275C14.536 14.0654 14.5926 14.1969 14.6908 14.2942Z" fill="#070F3F"/>
</svg>
