<svg width="21" height="20" viewBox="0 0 21 20" fill="none" xmlns="http://www.w3.org/2000/svg">
<path fill-rule="evenodd" clip-rule="evenodd" d="M11.333 13L10.333 15L9.33301 13V7.858C7.61201 7.411 6.33301 5.858 6.33301 4C6.33301 1.794 8.12701 0 10.333 0C12.539 0 14.333 1.794 14.333 4C14.333 5.858 13.054 7.411 11.333 7.858V13ZM14.067 10.491L14.6 8.563C18.136 9.54 20.333 11.623 20.333 14C20.333 17.364 15.94 20 10.333 20C4.72601 20 0.333008 17.364 0.333008 14C0.333008 11.623 2.53001 9.54 6.06701 8.562L6.60001 10.49C4.00801 11.207 2.33301 12.584 2.33301 14C2.33301 15.892 5.61801 18 10.333 18C15.048 18 18.333 15.892 18.333 14C18.333 12.584 16.658 11.207 14.067 10.491Z" fill="#070F3F"/>
</svg>
